<svg xmlns="http://www.w3.org/2000/svg" viewBox="0 0 5532.3 427"><path d="M5747.3 273.2l-64.7-138.7-24.1 51.7-25.2-54h26.6L5598.2 0l-61.7 132.2h26.6l-31.7 67.9c-3.5.6-7.1 1.3-10.6 1.9l-10.1-21.7-10.8 23.1-15.9-34.2h19.2l-44.6-95.6-44.6 95.6h19.2l-15.8 33.8-14.7-31.4-22.9 49.2c-5.2-.9-10.3-1.9-15.5-2.9l-10-21.5-8.6 18.3c-13.8-1.9-28.4-2.8-44.9-.8l-28.5-61.1-31.2 67h13.5l-2.9 6.3c-6.9 2.5-13.7 5.2-20.5 8l-10-21.5h17.1l-29.3-62.8h15.4l-35.9-76.9-35.9 76.9h15.4l-29.3 62.8h17.1l-32.6 70h3.8l-3.9 1.8-35.6-76.4-34.4 73.8-36.6-78.5-24.1 51.7-25.2-54h26.6l-61.7-132.2-61.7 132.2h26.6l-37.4 80.2-15-32.2-10.8 23.1-15.9-34.2h19.2l-44.6-95.6-44.6 95.6h19.2l-15.8 33.8-14.7-31.4-79.2 169.7c-5.8 2.1-11.8 4.1-17.8 5.7l-23.7-50.9-2.3 5-54.6-117-25.4 54.5-11.3-24.1-45.7 98h19.7l-3.8 8.2c-24.1-9.4-48.1-18.8-72.1-28.3l-2.8-6h15.4l-35.9-76.9-28.9 62-9.6-3.9-42.5-91.1-29.3 62.8c-22-6.4-44.9-8.8-68.2-8.7l-27.6-59.1-29.8 64c-10.5 1.6-21 3.5-31.4 5.7l-24.7-52.9-30.7 65.9c-2.2.6-4.4 1.1-6.6 1.7-3 .8-6.1 1.5-9.2 2.3l-4.7-10h17.1l-29.3-62.8h15.4l-35.9-76.9-35.9 76.9h15.4l-29.3 62.8h17.1l-12.9 27.6c-2.6.5-5.1 1.1-7.7 1.6l-3.1-6.7-3.8 8.2c-7.4 1.6-14.7 3.2-22 4.8l-5.4-11.6h8.7l-25.5-54.7h13.5l-31.2-67-31.2 67h13.5l-15 32.2-18.4-39.4h17.1l-29.3-62.8h15.4l-35.9-76.9-35.9 76.9h15.4l-16.6 35.6-34.8-73.6-29 61.3-16.2-34.3-6.7 14.2-17.3-36.6h17.3l-29.7-62.8h15.7L3641.1 43l-36.4 76.9h15.7l-8.6 18.2-6.5-13.8-24.1 51.7-25.1-53.1-31.7 67h13.6l-9 19.1c-6.2 2.7-12.4 5.3-18.7 7.9l-9.6-20.7h15.4l-35.9-76.9-35.9 76.9h15.4l-17 36.3-37-78.3-29 61.3-16.2-34.3-6.7 14.2-17.3-36.6h17.3L3324.1 96h15.7l-36.4-76.9L3267 96h15.7l-29.7 62.8h17.7l-18.6 39.4-15.2-32.2h13.6l-31.7-67-15.2 32-15.3-32.9-31.2 67h13.5l-15 32.2-18.4-39.4h17.1l-29.3-63h15.4L3104.5 18l-35.9 76.9h15.4l-29.3 62.8h17.1l-17.1 36.6-6.6-14.2-16 34.3-28.6-61.3-35.3 75.5-1-2.2-4.5 9.4c-.4-.1-.8-.2-1.2-.2l-18.2-38.5h15.7l-36.4-76.9-34.1 72.1-27-57.8-.2.4-6.1-13.1-23.9 51.3-19.1-40.9h26.6L2777.2 0l-61.7 132.2h26.6l-31.7 67.9c-3.5.6-7.1 1.3-10.6 1.9l-10.1-21.7-8.9 19-10.3-22.2-1.9 4.1-5.6-12h19.2l-44.6-95.6-42.8 91.8-12-25.3-36.4 76.9h14.2l-1.8 3.8c-5.2-.9-10.3-1.9-15.5-2.9l-10-21.5-8.6 18.3c-13.8-1.9-28.4-2.8-44.9-.8l-28.5-61.1-31.2 67h13.5l-2.9 6.3c-6.9 2.5-13.7 5.2-20.5 8l-10-21.5h17.1l-29.3-62.8h15.4l-35.9-76.9-35.9 76.9h15.4l-29.3 62.8h17.1l-32.6 70h3.8l-3.9 1.8-35.6-76.4-34.4 73.8-36.6-78.5-24.1 51.7-25.2-54h26.6l-61.7-132.2-61.7 132.2h26.6l-37.4 80.2-15-32.2-10.8 23.1-15.9-34.2h19.2l-44.6-95.6-44.6 95.6h19.2l-15.8 33.8-14.7-31.4-34.9 74.7-14.6-30.9-11.4 24.1-25.8-54.5-45.6 96.3-45.3-97.2-25.4 54.5-11.3-24.1-16.4 35.1-36.3-76.8-14.9 31.4-16-33.8h19.5l-45.2-95.6-45.3 95.4h19.5l-16.2 34.2-10.9-23.1-15.2 32.2L1486 202h27.2l-62.5-132.2-62.5 132.2h26.9l-25.5 54-24.5-51.7-37.1 78.5-34.9-73.8-36.1 76.4-3.9-1.8h3.9l-33.1-70h17.3l-29.7-62.8h15.7l-36.4-76.9-36.4 76.9h15.7l-29.7 62.8h17.3l-10.1 21.5c-6.9-2.8-13.8-5.5-20.8-8l-3-6.3h13.6l-31.7-67-28.9 61.1c-16.7-2-31.5-1.1-45.5.8l-8.7-18.3-.6 1.2-27.7-59.4-18.2 39-2.7-5.6-14.9 31.4-16-33.8H962l-45.2-95.6-45.2 95.6h19.5l-16.2 34.2-10.9-23.1-10.3 21.7c-3.6-.6-7.2-1.3-10.8-1.9l-32.1-67.9h26.9L775.2 1l-62.5 132.2h26.9l-25.5 54-24.5-51.7-11.5 24.3-18.9-40.5-35.9 76.9h15.4L620.1 236l-4.9-10.5-18.7 40.1-21.2-45.6-22.5 48.3c-3-.5-6.1-.9-9.2-1.3l-15.9-34-14.2 30.4c-8.5-.9-17-1.6-25.5-2.3-28.5-2.1-52-2.4-76.9-8l-15.5-33.3h14.9L385 165.1h13.5l-31.2-67-31.2 67h13.5l-15 32.2-18.4-39.4h17.1l-29.3-63h15.4L283.5 18l-35.9 76.9H263l-29.3 62.8h17.1l-17.1 36.6-6.6-14.2-16 34.3-28.6-61.3-38.8 83.1c-26.4-5.1-54.9-15.9-82.8-28.3L52 188.8h13.5l-31.2-67-28 60.1c-2.6-1.3-5.2-2.5-7.7-3.8L-29 118.9h15.4L-49.5 42l-35.9 76.9H-70l-29.3 62.8h17.1l-17.1 36.6-6.6-14.2-16 34.3-28.6-61.3-87.5 187.6h57.4l-12.6 27.1h13.2l-17.9 38.3h119.6L-88.6 408h38.4v22.1h5692.1v-69.6h68.5l-40.7-87.3h77.6zM-91.1 402.5l-5-10.7h10l-5 10.7zm791.9-124.2l-1.9-4.1h3.8l-1.9 4.1zm1903.6-92.5l-7.9-16.6h15.6l-7.7 16.6zm292 23.2l-5.6-11.9h11.2l-5.6 11.9zm1978 103.9l-1.7-3.7h3.4l-1.7 3.7z" fill="#0a1e33"/></svg>