
<svg width="1001px" height="797px" viewBox="0 0 1001 797" version="1.1" xmlns="http://www.w3.org/2000/svg" xmlns:xlink="http://www.w3.org/1999/xlink">
    <!-- Generator: Sketch 48.1 (47250) - http://www.bohemiancoding.com/sketch -->
    <desc>Created with Sketch.</desc>
    <defs></defs>
    <g id="Page-1" stroke="none" stroke-width="1" fill="none" fill-rule="evenodd">
        <g id="sprite">
            <polygon id="Shape" fill="#40291D" fill-rule="nonzero" points="22.9 103.2 15.3 103.2 18.8 106.7 18.1 107.4 13.9 103.2 13.9 102.2 18.1 98 18.8 98.7 15.3 102.2 22.9 102.2"></polygon>
            <polygon id="Shape" fill="#40291D" fill-rule="nonzero" points="51.9 103.2 59.5 103.2 56 106.7 56.7 107.4 60.9 103.2 60.9 102.2 56.7 98 56 98.7 59.5 102.2 51.9 102.2"></polygon>
            <path d="M545.5,2 L544.4,2 C544,2 543.9,2.2 543.9,2.6 L543.9,3.6 L545.4,3.6 L545.3,5.3 L544,5.3 L544,10.3 L542,10.3 L542,5.3 L541,5.3 L541,3.6 L542,3.6 L542,2.3 C542,1 542.7,0.4 544.1,0.4 L545.5,0.4 L545.5,2 Z" id="Shape" fill="#FFFFFF" fill-rule="nonzero"></path>
            <path d="M547.6,69.3 L546.6,69.3 C546.7,69.6 546.7,69.9 546.7,70.2 C546.7,72.2 545,73.9 543,73.9 C541,73.9 539.3,72.2 539.3,70.2 C539.3,69.9 539.3,69.6 539.4,69.3 L538.4,69.3 L538.4,74.4 C538.4,74.7 538.6,74.9 538.9,74.9 L547.2,74.9 C547.5,74.9 547.7,74.7 547.7,74.4 L547.6,69.3 Z M547.6,66 C547.6,65.7 547.4,65.5 547.1,65.5 L545.7,65.5 C545.4,65.5 545.2,65.7 545.2,66 L545.2,67.4 C545.2,67.7 545.4,67.9 545.7,67.9 L547.1,67.9 C547.4,67.9 547.6,67.7 547.6,67.4 L547.6,66 Z M543,67.9 C541.7,67.9 540.7,68.9 540.7,70.2 C540.7,71.5 541.7,72.5 543,72.5 C544.3,72.5 545.3,71.5 545.3,70.2 C545.3,68.9 544.3,67.9 543,67.9 Z M547.6,76.2 L538.4,76.2 C537.6,76.2 537,75.6 537,74.8 L537,65.6 C537,64.8 537.6,64.2 538.4,64.2 L547.6,64.2 C548.4,64.2 549,64.8 549,65.6 L549,74.8 C549,75.6 548.4,76.2 547.6,76.2 Z" id="Shape" fill="#FFFFFF" fill-rule="nonzero"></path>
            <g id="Group" transform="translate(598.000000, 64.000000)" fill="#FFFFFF" fill-rule="nonzero">
                <polygon id="Shape" points="2.2 4.8 2.9 4.8 2.9 2.9 3.7 0.2 3 0.2 2.5 2 2 0.2 1.4 0.2 2.2 2.9"></polygon>
                <path d="M3.6,4 C3.6,4.6 3.9,4.9 4.5,4.9 C5,4.9 5.4,4.6 5.4,4 L5.4,2.3 C5.4,1.8 5,1.4 4.5,1.4 C4,1.4 3.6,1.8 3.6,2.3 L3.6,4 Z M4.2,2.3 C4.2,2.1 4.3,2 4.5,2 C4.7,2 4.8,2.1 4.8,2.3 L4.8,3.9 C4.8,4.1 4.7,4.2 4.5,4.2 C4.3,4.2 4.2,4.1 4.2,3.9 L4.2,2.3 Z" id="Shape"></path>
                <path d="M6.3,4.8 C6.5,4.8 6.8,4.7 7,4.3 L7,4.7 L7.7,4.7 L7.7,1.3 L7.1,1.3 L7.1,3.9 C7,4 6.8,4.2 6.7,4.2 C6.5,4.2 6.5,4.1 6.5,4 L6.5,1.4 L5.9,1.4 L5.9,4.2 C5.9,4.5 6,4.8 6.3,4.8 Z" id="Shape"></path>
                <path d="M8.6,5.8 L1.4,5.8 C0.6,5.8 0,6.4 0,7.2 L0,10.8 C0,11.6 0.6,12.2 1.4,12.2 L8.6,12.2 C9.4,12.2 10,11.6 10,10.8 L10,7.2 C10,6.4 9.4,5.8 8.6,5.8 Z M2.2,7.2 L2.2,10.9 L1.5,10.9 L1.5,7.2 L0.8,7.2 L0.8,6.6 L2.8,6.6 L2.8,7.2 L2.2,7.2 Z M4.6,11 L4,11 L4,10.6 L3.7,10.9 C3.5,11 3.4,11 3.3,11 C3.1,11 2.9,10.9 2.9,10.4 L2.9,7.7 L3.5,7.7 L3.5,10.2 C3.5,10.3 3.5,10.4 3.7,10.4 C3.8,10.4 4,10.3 4,10.2 L4,7.8 L4.6,7.8 L4.6,11 Z M6.8,10.4 C6.8,10.8 6.7,11.1 6.3,11.1 C6,11.1 5.9,11 5.7,10.8 L5.7,11 L5.1,11 L5.1,6.6 L5.7,6.6 L5.7,8 C5.8,7.8 6,7.7 6.2,7.7 C6.7,7.7 6.8,8.1 6.8,8.6 L6.8,10.4 Z M9.1,10 C9,10.7 8.7,11 8.1,11 C7.5,11 7.3,10.6 7.3,10 L7.3,8.6 C7.3,8 7.7,7.7 8.2,7.7 C8.8,7.7 9,8.1 9,8.6 L9,9.4 L7.9,9.4 L7.9,10 C7.9,10.2 7.9,10.4 8.2,10.4 C8.4,10.4 8.5,10.2 8.5,10 L8.5,9.8 L9.1,9.8 L9.1,10 Z" id="Shape"></path>
                <path d="M7.8,8.9 L8.4,8.9 L8.4,8.6 C8.4,8.4 8.3,8.2 8.1,8.2 C7.8,8.2 7.8,8.4 7.8,8.6" id="Shape"></path>
                <path d="M6.3,10.2 L6.3,8.5 L6.2,8.3 C6.1,8.2 6,8.1 5.9,8.2 L5.8,8.3 L5.8,10.3 L5.9,10.4 C6,10.5 6.1,10.5 6.2,10.4" id="Shape"></path>
            </g>
            <path d="M607,2.2 C607.1,5 605,8.2 601.2,8.2 C600,8.2 599,7.9 598.1,7.3 C599.2,7.4 600.3,7.1 601.1,6.5 C600.2,6.5 599.4,5.9 599.2,5.1 C599.5,5.2 599.8,5.1 600.1,5.1 C599.1,4.9 598.4,4 598.5,3.1 C598.8,3.3 599.1,3.3 599.4,3.4 C598.5,2.8 598.2,1.6 598.8,0.7 C599.8,1.9 601.3,2.7 603,2.8 C602.7,1.5 603.7,0.3 605,0.3 C605.6,0.3 606.1,0.5 606.5,0.9 C607,0.8 607.4,0.6 607.8,0.4 C607.6,0.9 607.3,1.3 606.9,1.5 C607.3,1.5 607.7,1.3 608.1,1.2 C607.7,1.6 607.4,1.9 607,2.2" id="Shape" fill="#FFFFFF" fill-rule="nonzero"></path>
            <path d="M554.7,762.7 C554.7,781.1 570.1,796.4 588.4,796.4 C606.8,796.4 622.1,781 622.1,762.7 C622.1,744.3 606.7,729 588.4,729 C570,729 554.7,744.3 554.7,762.7 Z M276.3,762.7 C276.3,781.1 260.9,796.4 242.6,796.4 C224.2,796.4 208.9,781 208.9,762.7 C208.9,744.3 224.3,729 242.6,729 C261,729 276.3,744.3 276.3,762.7 Z M637.6,740.7 C637.6,769.1 681.6,769.1 681.6,740.7 C681.6,712.3 637.6,712.3 637.6,740.7 Z M193.4,740.7 C193.4,769.1 149.4,769.1 149.4,740.7 C149.4,712.3 193.4,712.3 193.4,740.7 Z M514.6,747.4 C495.6,747.3 485.9,730.6 476.6,716.7 C464.2,698.1 453.6,678.3 445.6,657.4 C428.7,613.1 421.2,563.5 421.2,516.2 C421.2,468.6 453.5,425 482.1,389.6 C512.4,352.2 547,318.3 584.5,288.2 C598.9,276.6 615,261.7 632.4,254.8 C649.8,247.8 670,256.6 677,273.9 C683.5,290.1 676.5,307.7 661.9,316.5 C646.8,325.7 631,333.9 615.7,342.7 C573.8,366.9 531.3,392.2 495.4,424.9 C478.5,440.3 462.7,457.7 452,478.2 C440,501.3 439.5,525.8 444.5,550.9 C454,599.3 486.2,645.8 521.5,679.5 C530.8,688.3 542.5,695.3 545.6,708.7 C550.1,728.2 534.7,747.5 514.6,747.4 Z M162.8,680.1 C162.8,698.5 147.4,713.8 129.1,713.8 C110.7,713.8 95.4,698.4 95.4,680.1 C95.4,661.7 110.8,646.4 129.1,646.4 C147.4,646.4 162.8,661.7 162.8,680.1 Z M668.2,680.1 C668.2,698.5 683.6,713.8 701.9,713.8 C720.3,713.8 735.6,698.4 735.6,680.1 C735.6,661.7 720.2,646.4 701.9,646.4 C683.6,646.4 668.2,661.7 668.2,680.1 Z M359.4,514.6 C359.1,495.6 341.7,480.4 327.5,470.2 C308.1,456.2 285.8,446.5 263.6,438 C220.7,421.5 176,407.1 130.8,398.3 C113.3,394.9 98.3,385.8 95.5,366.7 C92.9,348.7 104.5,331 122,326.3 C138.9,321.7 154.1,331.8 168.6,338.8 C189.2,348.7 209.7,358.9 229.7,369.9 C273.6,393.8 318,422.8 352.4,459.4 C366.5,474.5 379.9,492.9 380.2,514.4 C380.4,529.9 375.7,545.4 369.6,559.5 C350.9,602.6 320.1,638.5 285,669 C271,681.1 255.6,696.4 238.8,704.6 C222.7,712.4 202.5,706.2 193.1,691.2 C182.3,674.1 188.1,649.8 206.3,640.3 C224.8,630.6 244.1,622.9 262.4,612.5 C285.6,599.3 309.7,585.5 329.8,567.8 C345.2,554 359,536 359.4,514.6 Z M531,688.4 C528.2,685.9 525.5,683.4 522.9,680.8 C525.5,683.4 528.2,686 531,688.4 Z M294.2,693.1 C320.8,669.5 344.1,642.5 362.3,611.9 C386.1,571.8 401.4,519 377.5,475.6 C354.1,433 311.1,402.7 271.2,376.8 C237.9,355.3 202.6,337.1 168.8,316.4 C152.9,306.6 146.4,286.3 155.9,269.6 C165.3,253.1 186.2,247.7 202.7,256.7 C219.5,265.8 234.8,278.7 249.6,290.7 C268.1,305.7 285.9,321.6 302.7,338.5 C336.9,372.7 370.4,410.9 392.6,454.3 C403.1,474.7 410.1,496.3 409.8,519.5 C409.4,544.7 406.8,569.9 402.4,594.7 C393.5,644.5 374.7,691.4 343.8,731.7 C333,745.8 315.2,752.9 298.9,742.2 C282.2,731.2 279.9,706.9 294.2,693.1 C294.4,693 294.6,692.8 294.9,692.7 C294.7,692.9 294.5,693.1 294.2,693.1 Z M501.3,515.7 C501.5,529.7 523.5,538 534.1,541.7 C553.2,548.3 573.5,550.7 593.4,553.1 C612.8,555.5 632.3,558 651.8,559.4 C667.3,560.5 681.5,559.5 692.5,572.6 C714.2,598.6 688.7,640.6 655.4,630.2 C619.7,619 584.2,603.6 551.9,584.8 C535,574.9 517.8,564.3 502.9,551.6 C491.3,541.7 479,527.8 481.6,511.3 C484.5,492.6 504.6,481.7 519.7,473.9 C538.5,464.2 558.4,456.1 578.3,448.8 C613.6,435.8 650.2,426.5 687.3,420.1 C701.4,417.7 715.1,419.4 725.2,430.5 C735.8,442.1 737.7,459.9 729.7,473.4 C721,488.1 706.4,491.5 690.6,490.9 C668.5,490.1 646.4,490.1 624.3,490 C600.4,489.8 576.2,489.3 552.4,492.3 C541.5,493.7 530.5,495.8 520.2,499.9 C513.7,502.4 501.7,507.3 501.3,515.7 Z M329.7,515.7 L329.7,515.5 L329.7,515.7 Z M501.3,515.7 L501.3,515.5 L501.3,515.7 Z M471.6,514.6 C472.5,558.5 522.7,584.9 555.3,604.5 C573.6,615.5 592.5,625.5 611.9,634.5 C627.4,641.7 641.2,648.8 643.2,667.9 C645.1,685.8 633,702.9 615.4,706.9 C596.5,711.2 582.6,698.6 568.8,687.8 C532.7,659.5 499.9,627.7 476.2,588.2 C455.7,553.8 439.1,514.1 463.5,477.7 C476.7,458.1 495.4,442.2 513.7,427.6 C533.7,411.6 554.9,397.1 576.8,383.9 C596.9,371.7 617.8,361 638.8,350.4 C654.7,342.4 671.4,332 688.5,326.7 C728,314.5 753.9,370.1 718.8,392.3 C710.9,397.3 701.4,398.1 692.4,400 C681,402.4 669.6,405.3 658.3,408.4 C631.7,415.7 605.4,424.3 579.4,433.6 C553.9,442.8 528.1,453.2 505.6,468.7 C490.8,479 471.9,494.8 471.6,514.6 Z M329.7,515.7 C328.5,500.4 297.4,495.3 286.2,493.4 C265.2,489.9 243.7,489.8 222.5,489.9 C202.4,489.9 182.3,489.9 162.2,490.3 C147.9,490.6 130.4,494.1 117,487.7 C86.8,473.3 91.7,427.3 124.3,419.7 C137.9,416.5 153.9,421.9 167.1,424.6 C186.2,428.6 205.1,433.1 223.7,438.9 C243.9,445.2 263.7,452.7 283.1,460.9 C301.4,468.7 321.5,476.8 336.5,490.1 C370.2,520.1 330.3,551.9 304.8,568.8 C271.2,591.2 235.5,608 197.8,622.2 C183.9,627.4 169.7,635.1 154.6,630 C139.2,624.8 129,609.3 130.2,593.1 C131.4,577.2 143.9,562.6 160,560.4 C169.9,559.1 180.3,559.5 190.3,558.6 C201.1,557.6 211.9,556.3 222.6,555 C245,552.3 268,550.2 289.8,544 C302,540.4 329.4,531.8 329.7,515.7 Z M753.7,450.4 C757.5,478.5 801.1,472.6 797.3,444.5 C793.5,416.4 749.9,422.3 753.7,450.4 C755.4,462.5 752.1,438.4 753.7,450.4 Z M77.3,450.4 C73.5,478.5 29.9,472.6 33.7,444.5 C37.5,416.4 81.1,422.3 77.3,450.4 C75.6,462.5 78.9,438.4 77.3,450.4 Z M754.7,376.3 C757.2,394.5 774.5,407.7 792.7,405.2 C810.9,402.7 824.1,385.4 821.6,367.2 C819.1,349 801.8,335.8 783.6,338.3 C765.4,340.8 752.2,358.1 754.7,376.3 C757.2,394.7 752.2,357.8 754.7,376.3 Z M76.3,376.3 C73.8,394.5 56.5,407.7 38.3,405.2 C20.1,402.7 6.9,385.4 9.4,367.2 C11.9,349 29.2,335.8 47.4,338.3 C65.6,340.8 78.8,358.1 76.3,376.3 C73.8,394.7 78.8,357.8 76.3,376.3 Z M49.3,300.7 C45.5,328.8 1.9,322.9 5.7,294.8 C9.5,266.7 53.1,272.6 49.3,300.7 C47.7,312.8 51,288.7 49.3,300.7 Z M781.7,300.7 C785.5,328.8 829.1,322.9 825.3,294.8 C821.5,266.7 777.9,272.6 781.7,300.7 C783.3,312.8 780,288.7 781.7,300.7 Z M139,257.7 C136.5,275.9 119.2,289.1 101,286.6 C82.8,284.1 69.6,266.8 72.1,248.6 C74.6,230.4 91.9,217.2 110.1,219.7 C128.3,222.2 141.5,239.5 139,257.7 Z M692,257.7 C694.5,275.9 711.8,289.1 730,286.6 C748.2,284.1 761.4,266.8 758.9,248.6 C756.4,230.4 739.1,217.2 720.9,219.7 C702.7,222.2 689.5,239.5 692,257.7 Z M44.8,238.2 C41,266.3 -2.6,260.4 1.2,232.3 C5,204.1 48.6,210 44.8,238.2 C43.2,250.2 46.5,226.1 44.8,238.2 Z M786.2,238.2 C790,266.3 833.6,260.4 829.8,232.3 C826,204.1 782.4,210 786.2,238.2 C787.8,250.2 784.5,226.1 786.2,238.2 Z M295.1,692.5 C298.8,689.7 302.2,686.5 305.6,683.3 C302.3,686.5 298.8,689.6 295.1,692.5 Z M536.7,693.1 L535.1,691.9 C535.6,692.3 536.1,692.7 536.7,693.1 Z M534.6,691.5 C534.1,691.1 533.7,690.8 533.3,690.4 L534.6,691.5 Z M533,690.2 L531,688.5 C531.8,689.1 532.4,689.7 533,690.2 Z" id="Shape" fill="#FFF8E7" fill-rule="nonzero"></path>
            <path d="M22.3,58.4 C22.3,61.5 17.4,61.5 17.4,58.4 C17.4,55.3 22.3,55.3 22.3,58.4 Z" id="Shape" fill="#F8AF0B" fill-rule="nonzero"></path>
            <path d="M5.9,2.7 C5.5,5.8 0.6,5.2 1.1,2 C1.4,-1 6.3,-0.4 5.9,2.7 C5.7,4.1 6,1.4 5.9,2.7 Z" id="Shape" fill="#EB1A2D" fill-rule="nonzero"></path>
            <path d="M6.4,9.7 C6,12.8 1.1,12.2 1.6,9 C1.9,5.9 6.8,6.6 6.4,9.7 C6.2,11 6.5,8.3 6.4,9.7 Z" id="Shape" fill="#F8AF0B" fill-rule="nonzero"></path>
            <path d="M9.5,26.3 C9.1,29.4 4.2,28.8 4.7,25.6 C5,22.5 9.9,23.1 9.5,26.3 C9.3,27.6 9.6,24.9 9.5,26.3 Z" id="Shape" fill="#E40C90" fill-rule="nonzero"></path>
            <path d="M9.3,18 C8.7,22.8 1.2,21.8 1.9,17 C2.6,12.3 10,13.3 9.3,18 C9.1,20.1 9.6,16 9.3,18 Z" id="Shape" fill="#EB1A2D" fill-rule="nonzero"></path>
            <path d="M16.3,4.9 C15.6,9.8 8,8.6 8.9,3.7 C9.8,-0.9 16.8,0.2 16.3,4.9 Z" id="Shape" fill="#E40C90" fill-rule="nonzero"></path>
            <path d="M574.95849,8.12295909 C574.95849,8.4790197 574.839187,8.78167122 574.600582,9.03091364 C574.361976,9.28015606 574.072241,9.40477728 573.731376,9.40477728 C573.390511,9.40477728 573.100775,9.28015606 572.86217,9.03091364 C572.623564,8.78167122 572.504261,8.4790197 572.504261,8.12295909 C572.504261,7.76689849 572.623564,7.46424697 572.86217,7.21500455 C573.100775,6.96576212 573.390511,6.84114091 573.731376,6.84114091 C574.072241,6.84114091 574.361976,6.96576212 574.600582,7.21500455 C574.839187,7.46424697 574.95849,7.76689849 574.95849,8.12295909 Z M578.230795,8.94412387 C578.239316,9.06874508 578.203099,9.17556326 578.122144,9.26457841 C578.045449,9.35804432 577.94532,9.40477728 577.821757,9.40477728 L576.958942,9.40477728 C576.852421,9.40477728 576.760814,9.36805853 576.684119,9.29462103 C576.607425,9.22118353 576.564817,9.12883031 576.556295,9.01756137 C576.462557,7.99833788 576.069497,7.12710209 575.377115,6.40385398 C574.684733,5.68060587 573.850678,5.27002349 572.874952,5.17210682 C572.768432,5.16320531 572.68002,5.11869773 572.609716,5.03858409 C572.539413,4.95847046 572.504261,4.86277917 572.504261,4.75151023 L572.504261,3.85023182 C572.504261,3.72115985 572.549,3.61656705 572.638477,3.53645341 C572.710911,3.46079053 572.802518,3.42295909 572.913299,3.42295909 L572.945256,3.42295909 C573.626986,3.48081894 574.27889,3.65996193 574.900969,3.96038807 C575.523048,4.26081421 576.074823,4.66472046 576.556295,5.17210682 C577.042028,5.67504243 577.428696,6.25141553 577.716301,6.90122614 C578.003906,7.55103675 578.175404,8.23200265 578.230795,8.94412387 Z M581.503099,8.95747614 C581.511621,9.07764659 581.473274,9.1822394 581.388057,9.27125455 C581.311363,9.3602697 581.213364,9.40477728 581.094061,9.40477728 L580.180117,9.40477728 C580.069336,9.40477728 579.974533,9.36583315 579.895707,9.28794489 C579.816882,9.21005663 579.775339,9.11547803 579.771079,9.00420909 C579.719949,8.04729622 579.504778,7.13822898 579.125565,6.27700739 C578.746353,5.4157858 578.253164,4.66805853 577.645998,4.03382557 C577.038832,3.39959262 576.323015,2.88441743 575.498548,2.4883 C574.674081,2.09218258 573.803809,1.86519394 572.887735,1.80733409 C572.781214,1.80288334 572.690672,1.75948845 572.616108,1.67714943 C572.541543,1.59481042 572.504261,1.49800644 572.504261,1.3867375 L572.504261,0.432050003 C572.504261,0.307428791 572.546869,0.205061367 572.632086,0.12494773 C572.70878,0.0448340938 572.802518,0.00477727566 572.913299,0.00477727566 C574.048806,0.0626371241 575.117205,0.329682579 576.13767,0.805913639 C577.158135,1.2821447 578.064623,1.93640606 578.857134,2.76869773 C579.653906,3.59653864 580.280246,4.54343731 580.736153,5.60939375 C581.19206,6.67535019 581.447709,7.79137765 581.503099,8.95747614 Z" id="rss" fill="#FFFFFF" fill-rule="nonzero"></path>
            <path d="M18.9,51.7 C18.9,56.5 11.4,56.5 11.4,51.7 C11.5,46.9 18.9,46.9 18.9,51.7 Z" id="Shape" fill="#EB1A2D" fill-rule="nonzero"></path>
            <path d="M31.5,60.9 C31.5,65.7 24,65.7 24,60.9 C24,56.1 31.5,56.1 31.5,60.9 Z" id="Shape" fill="#E40C90" fill-rule="nonzero"></path>
            <path d="M23.5,4.9 C27.5,7.3 31.1,10.5 34.4,13.8 C38.2,17.6 42,21.9 44.5,26.7 C47.1,31.8 46.5,37.2 45.5,42.7 C44.6,47.7 42.7,52.5 39.7,56.7 C38.7,58.1 37.7,59.4 35.8,59.3 C33.8,59.2 32.2,57.2 32.6,55.2 C32.9,53.5 34.4,52.7 35.5,51.5 C37.2,49.8 38.7,47.8 40.1,45.8 C42.9,41.7 45.4,35.8 43.6,30.8 C41.9,26 37.4,22.5 33.4,19.7 C29,16.6 24.3,14.3 19.8,11.5 C15.4,8.8 19.2,2.3 23.5,4.9 Z" id="Shape" fill="#EB1A2D" fill-rule="nonzero"></path>
            <path d="M17.3,12.8 C23.5,15.7 29.7,18.9 35.2,23.1 C37.9,25.2 41.2,27.7 42.5,31 C43.5,33.5 42.8,36.1 41.8,38.5 C39,44.8 33.9,49.9 28.3,53.9 C26.1,55.5 22.8,55 21.8,52.1 C21.4,50.9 21.6,49.6 22.3,48.6 C23.1,47.4 24.5,47 25.7,46.4 C29.1,44.8 32.5,42.9 35.6,40.6 C38,38.9 40.6,36.5 40.6,33.3 C40.5,29.6 35.5,27.2 32.7,25.9 C28.6,24 24.2,22.6 19.8,21.5 C17.1,20.8 12.5,20.8 11.5,17.5 C10.6,14.3 14.1,11.2 17.3,12.8 Z" id="Shape" fill="#E40C90" fill-rule="nonzero"></path>
            <path d="M16.3,22.8 C22.3,23.8 28.2,25.5 33.8,28.1 C36,29.1 39.7,30.6 39.7,33.6 C39.7,36.2 36.9,38 35.1,39.2 C32.6,40.9 30,42.4 27.3,43.6 C26,44.2 24.7,44.7 23.4,45.2 C22.2,45.7 20.8,46.4 19.5,46.5 C17,46.6 14.9,44.2 15.4,41.7 C15.9,39 18.2,38.6 20.5,38.5 C23.9,38.3 27.5,37.9 30.8,37.3 C32.6,37 37.4,36.1 37.4,33.6 C37.3,32.3 35.1,31.7 34.1,31.4 C32.3,30.9 30.5,30.8 28.7,30.7 C25.2,30.6 21.6,30.6 18.1,30.7 C15.5,30.8 12.5,30.9 11.7,27.7 C11,24.9 13.5,22.4 16.3,22.8 Z M71.6,58.4 C71.6,61.5 76.5,61.5 76.5,58.4 C76.4,55.3 71.6,55.3 71.6,58.4 Z" id="Shape" fill="#F8AF0B" fill-rule="nonzero"></path>
            <path d="M88,2.7 C88.4,5.8 93.3,5.2 92.8,2 C92.4,-1 87.6,-0.4 88,2.7 C88.2,4.1 87.8,1.4 88,2.7 Z" id="Shape" fill="#EB1A2D" fill-rule="nonzero"></path>
            <path d="M87.5,9.7 C87.9,12.8 92.8,12.2 92.3,9 C91.9,5.9 87.1,6.6 87.5,9.7 Z" id="Shape" fill="#F8AF0B" fill-rule="nonzero"></path>
            <path d="M84.4,26.3 C84.8,29.4 89.7,28.8 89.2,25.6 C88.8,22.5 84,23.1 84.4,26.3 Z" id="Shape" fill="#E40C90" fill-rule="nonzero"></path>
            <path d="M84.5,18 C85.1,22.8 92.6,21.8 91.9,17 C91.3,12.3 83.9,13.3 84.5,18 C84.8,20.1 84.3,16 84.5,18 Z" id="Shape" fill="#EB1A2D" fill-rule="nonzero"></path>
            <path d="M77.6,4.9 C78.3,9.8 85.9,8.6 85,3.7 C84.1,-0.9 77,0.2 77.6,4.9 Z" id="Shape" fill="#E40C90" fill-rule="nonzero"></path>
            <path d="M74.9,51.7 C74.9,56.5 82.4,56.5 82.4,51.7 C82.4,46.9 74.9,46.9 74.9,51.7 Z" id="Shape" fill="#EB1A2D" fill-rule="nonzero"></path>
            <path d="M62.4,60.9 C62.4,65.7 69.9,65.7 69.9,60.9 C69.8,56.1 62.4,56.1 62.4,60.9 Z" id="Shape" fill="#E40C90" fill-rule="nonzero"></path>
            <path d="M70.4,4.9 C66.4,7.3 62.8,10.5 59.5,13.8 C55.7,17.6 51.9,21.9 49.4,26.7 C46.8,31.8 47.4,37.2 48.4,42.7 C49.3,47.7 51.2,52.3 54.1,56.5 C55.1,57.9 56.1,59.3 58,59.3 C60,59.3 61.7,57.4 61.4,55.4 C61.2,53.7 59.7,52.8 58.6,51.7 C56.9,50 55.4,48.1 54,46.1 C51.2,42 48.6,36.3 50.2,31.3 C51.7,26.5 56.2,22.9 60.2,20.1 C64.7,16.9 69.5,14.5 74.1,11.6 C75.7,10.6 76.6,8.8 75.9,6.9 C75.1,4.6 72.4,3.6 70.4,4.9 Z" id="Shape" fill="#EB1A2D" fill-rule="nonzero"></path>
            <path d="M76.6,12.8 C70.4,15.7 64.2,18.9 58.7,23.1 C56,25.2 52.7,27.7 51.4,31 C50.4,33.5 51.1,36.1 52.1,38.5 C54.9,44.9 60,49.9 65.6,53.9 C67.8,55.5 71.1,55 72.1,52.1 C72.5,50.9 72.3,49.6 71.6,48.6 C70.8,47.4 69.4,47 68.2,46.4 C64.8,44.8 61.4,42.9 58.3,40.6 C55.9,38.9 53.3,36.5 53.3,33.3 C53.4,29.6 58.4,27.2 61.2,25.9 C65.3,24 69.7,22.6 74.1,21.5 C76.8,20.8 81.4,20.8 82.4,17.5 C83.3,14.3 79.7,11.2 76.6,12.8 Z" id="Shape" fill="#E40C90" fill-rule="nonzero"></path>
            <path d="M77.6,22.8 C71.6,23.8 65.7,25.5 60.1,28.1 C57.9,29.1 54.2,30.6 54.2,33.6 C54.2,36.2 57,38 58.8,39.2 C61.3,40.9 63.9,42.4 66.6,43.6 C67.9,44.2 69.2,44.7 70.5,45.2 C71.7,45.7 73.1,46.4 74.4,46.5 C76.9,46.6 79,44.2 78.5,41.7 C78,39 75.7,38.6 73.4,38.5 C70,38.3 66.4,37.9 63.1,37.3 C61.3,37 56.6,36.1 56.5,33.6 C56.6,32.3 58.8,31.7 59.8,31.4 C61.6,30.9 63.4,30.8 65.2,30.7 C68.7,30.6 72.3,30.6 75.8,30.7 C78.4,30.8 81.4,30.9 82.2,27.7 C82.5,26.4 82.1,25 81.3,24.1 C80.8,23.6 80.3,23.2 79.6,23 C79.4,22.9 77.6,22.6 77.6,22.8 Z" id="Shape" fill="#F8AF0B" fill-rule="nonzero"></path>
            <path d="M275.1,1.5 L275.1,34.3 C275.1,36.9 276.4,38 278.7,38 C280.3,38 281,37.6 281,37.6 L281,34.6 C281,34.6 280.6,34.8 279.9,34.8 C279,34.8 278.6,34.5 278.6,33.5 L278.6,1.5 L275.1,1.5 Z M265.8,30.5 C265.8,28 263.8,26.2 259.5,26.2 C255.9,26.2 254,28.3 254,30.5 C254,32.7 255.9,34.7 259.5,34.7 C263.8,34.7 265.8,32.9 265.8,30.5 Z M271.7,34.6 L271.7,37.6 C271.7,37.6 270.9,38 269.3,38 C267.2,38 266.2,36.5 266.2,35.1 L266.2,35 L266.1,35 C266.1,35 264.6,38 259.5,38 C253.8,38 250.6,34.6 250.6,30.4 C250.6,26.3 253.9,22.9 259.5,22.9 C264.2,22.9 265.7,25.2 265.7,25.2 L265.8,25.2 L265.8,21.4 C265.8,18.4 264,16.2 259.8,16.2 C254.1,16.2 253.9,19.7 253.9,21 L250.8,20.3 C250.8,17.8 251.6,12.9 259.8,12.9 C266.8,12.9 269.2,16.5 269.2,20.9 L269.2,33.2 C269.2,34.4 269.6,34.8 270.6,34.8 C271.2,34.8 271.7,34.6 271.7,34.6 Z M248.9,37.7 L238.6,25.2 L248.7,13.2 L244.6,13.2 L233.4,26.7 L233.4,1.4 L230,1.4 L230,37.7 L233.5,37.7 L233.5,31.3 L236.6,27.7 L244.8,37.7 L248.9,37.7 Z M209.6,25 L216,25 C220,25 221.9,23.3 221.9,20.6 C221.9,18.4 220.6,16.3 216,16.3 C212,16.2 209.7,18.6 209.6,25 Z M222.2,30.5 L225.3,31 C225.3,34.2 223.1,38 216.1,38 C209.3,38 206.2,34.3 206.2,25.6 C206.2,16.9 209.3,13 216.1,13 C222.9,13 225.4,16.6 225.4,20.7 C225.4,25.5 222.1,28.3 216.2,28.3 L209.9,28.3 C210.4,33.3 212.8,34.9 216.2,34.9 C220.9,34.8 222.2,32.4 222.2,30.5 Z M197.3,34.3 C197.3,36.5 198.4,38 200.9,38 C202.5,38 203.3,37.6 203.3,37.6 L203.3,34.6 C203.3,34.6 202.8,34.8 202.2,34.8 C201.3,34.8 200.8,34.4 200.8,33.2 L200.8,21.4 C200.8,16.8 198.6,12.9 192.3,12.9 C186.7,12.9 185.4,16.6 185.4,16.6 L185.3,16.6 L185.3,1.5 L181.8,1.5 L181.8,37.8 L185.3,37.8 L185.3,22.3 C185.3,20.1 186.8,16.2 191.5,16.2 C196.1,16.2 197.4,19.1 197.4,22.1 L197.3,34.3 Z M172.4,30.5 C172.4,28 170.4,26.2 166.1,26.2 C162.5,26.2 160.6,28.3 160.6,30.5 C160.6,32.7 162.5,34.7 166.1,34.7 C170.4,34.7 172.4,32.9 172.4,30.5 Z M178.3,34.6 L178.3,37.6 C178.3,37.6 177.5,38 175.9,38 C173.8,38 172.8,36.5 172.8,35.1 L172.8,35 L172.7,35 C172.7,35 171.2,38 166.1,38 C160.4,38 157.2,34.6 157.2,30.4 C157.2,26.3 160.5,22.9 166.1,22.9 C170.8,22.9 172.3,25.2 172.3,25.2 L172.4,25.2 L172.4,21.4 C172.4,18.4 170.6,16.2 166.4,16.2 C160.7,16.2 160.5,19.7 160.5,21 L157.4,20.3 C157.4,17.8 158.2,12.9 166.4,12.9 C173.4,12.9 175.8,16.5 175.8,20.9 L175.8,33.2 C175.8,34.4 176.2,34.8 177.2,34.8 C177.8,34.8 178.3,34.6 178.3,34.6 Z M117.8,37.7 L117.8,17.7 C117.8,16.5 117.4,16.1 116.4,16.1 C115.8,16.1 115.3,16.3 115.3,16.3 L115.3,13.3 C115.3,13.3 116.1,12.9 117.7,12.9 C120.1,12.9 121.3,14.3 121.3,16.6 L121.4,16.6 C121.4,16.6 122.8,12.9 128.4,12.9 C132.5,12.9 134.9,14.6 136,17 C137.1,14.9 139.5,12.9 143.6,12.9 C149.9,12.9 152.1,16.8 152.1,21.4 L152.1,33.2 C152.1,34.4 152.5,34.8 153.5,34.8 C154.1,34.8 154.6,34.6 154.6,34.6 L154.6,37.6 C154.6,37.6 153.8,38 152.2,38 C149.8,38 148.6,36.6 148.6,34.3 L148.6,22.1 C148.6,19 147.3,16.2 142.7,16.2 C139.3,16.2 137.5,18.3 136.8,20.2 L136.9,21.4 L136.9,37.7 L133.4,37.7 L133.4,22.1 C133.4,19 132.2,16.2 127.5,16.2 C123,16.2 121.4,19.7 121.3,21.9 L121.3,37.7 L117.8,37.7 Z M138.4,51.2 L138.4,62 L139.6,62 L139.6,61.1 L139.7,61.1 C139.8,61.5 140.5,62 141.6,62 C143.4,62 144.4,60.7 144.4,58.3 C144.4,55.8 143.5,54.6 141.6,54.6 C140.5,54.6 139.9,55.1 139.8,55.5 L139.7,55.5 L139.7,51.2 L138.4,51.2 Z M139.5,58.4 C139.5,56.7 140,55.8 141.3,55.8 C142.5,55.8 143,56.7 143,58.4 C143,60.1 142.5,61 141.3,61 C140,61 139.5,60 139.5,58.4 Z M154.3,59.8 C154.3,60.4 153.9,61 152.6,61 C151.7,61 151,60.6 150.9,59.2 L152.7,59.2 C154.5,59.2 155.5,58.4 155.5,57 C155.5,55.8 154.8,54.7 152.7,54.7 C150.6,54.7 149.6,55.9 149.6,58.5 C149.6,61.1 150.6,62.2 152.7,62.2 C154.8,62.2 155.5,61.1 155.5,60 L154.3,59.8 Z M152.6,55.7 C153.9,55.7 154.2,56.3 154.2,56.9 C154.2,57.7 153.6,58.1 152.5,58.1 L150.7,58.1 C150.9,56.3 151.5,55.7 152.6,55.7 Z M163.5,54.6 C161.6,54.6 160.6,55.8 160.6,58.3 C160.6,60.8 161.5,62.1 163.4,62.1 C164.6,62.1 165.2,61.5 165.3,61.2 L165.4,61.2 C165.4,61.6 165.7,62.1 166.4,62.1 C166.9,62.1 167.2,62 167.2,62 L167.2,61 C167.2,61 167,61.1 166.9,61.1 C166.6,61.1 166.5,61 166.5,60.6 L166.5,54.8 L165.3,54.8 L165.3,55.7 L165.2,55.7 C165.2,55.2 164.6,54.6 163.5,54.6 Z M165.5,58.4 C165.5,60.1 165,61 163.7,61 C162.5,61 162,60.1 162,58.4 C162,56.6 162.5,55.8 163.7,55.8 C164.9,55.7 165.5,56.7 165.5,58.4 Z M177,59.3 C177,60.3 176.6,61 175.4,61 C174.2,61 173.6,60.2 173.6,58.4 C173.6,56.5 174.2,55.8 175.4,55.8 C176.7,55.8 177,56.6 177,57.5 L178.2,57.3 C178.2,55.9 177.7,54.7 175.4,54.7 C173.3,54.7 172.3,55.9 172.3,58.5 C172.3,61.1 173.3,62.2 175.4,62.2 C177.7,62.2 178.2,61 178.2,59.6 C178.2,59.6 177,59.3 177,59.3 Z M188.2,60.9 C188.2,61.7 188.6,62.1 189.4,62.1 C189.9,62.1 190.2,62 190.2,62 L190.2,61 C190.2,61 190.1,61.1 189.9,61.1 C189.6,61.1 189.5,61 189.5,60.6 L189.5,57.2 C189.5,55.8 188.8,54.7 187,54.7 C185.4,54.7 185,55.7 185,55.7 L185,51.4 L183.7,51.4 L183.7,62.1 L185,62.1 L185,57.5 C185,56.8 185.4,55.8 186.7,55.8 C188,55.8 188.3,56.6 188.3,57.5 L188.2,60.9 Z M203.9,62 L203.9,58.3 C203.9,57.3 204.2,55.8 206,55.8 C206.4,55.8 206.5,55.9 206.6,55.9 L206.6,54.7 C206.6,54.7 206.4,54.6 206.1,54.6 C204.4,54.6 203.9,55.9 203.9,55.9 C203.9,55.2 203.5,54.6 202.7,54.6 C202.2,54.6 201.9,54.7 201.9,54.7 L201.9,55.7 C201.9,55.7 202,55.6 202.2,55.6 C202.5,55.6 202.6,55.7 202.6,56.1 L202.6,61.9 C202.7,62 203.9,62 203.9,62 Z M216.3,59.8 C216.3,60.4 215.9,61 214.6,61 C213.7,61 213,60.6 212.9,59.2 L214.7,59.2 C216.5,59.2 217.5,58.4 217.5,57 C217.5,55.8 216.8,54.7 214.7,54.7 C212.6,54.7 211.6,55.9 211.6,58.5 C211.6,61.1 212.6,62.2 214.7,62.2 C216.8,62.2 217.5,61.1 217.5,60 L216.3,59.8 Z M214.6,55.7 C215.9,55.7 216.2,56.3 216.2,56.9 C216.2,57.7 215.6,58.1 214.5,58.1 L212.7,58.1 C212.8,56.3 213.5,55.7 214.6,55.7 Z M226.9,60 C226.9,60.5 226.6,61 225.4,61 C224.2,61 223.8,60.4 223.8,59.8 L222.6,60 C222.6,61 223.3,62.1 225.4,62.1 C227.5,62.1 228.2,61.2 228.2,60.1 C228.2,57.4 224,58 224,56.6 C224,56.1 224.4,55.7 225.4,55.7 C226.5,55.7 227,56.2 227,57 L228.2,56.8 C228.2,55.5 227.3,54.6 225.4,54.6 C223.5,54.6 222.8,55.7 222.8,56.6 C222.7,59.2 226.9,58.4 226.9,60 Z M236.4,62.1 C238.5,62.1 239.4,61 239.4,58.4 C239.4,55.8 238.5,54.6 236.4,54.6 C234.3,54.6 233.3,55.8 233.3,58.4 C233.3,61 234.3,62.1 236.4,62.1 Z M236.4,61 C235.2,61 234.6,60.2 234.6,58.4 C234.6,56.6 235.1,55.8 236.4,55.8 C237.6,55.8 238.2,56.6 238.2,58.4 C238.2,60.2 237.6,61 236.4,61 Z M246.4,62 L246.4,58.3 C246.4,57.3 246.7,55.8 248.5,55.8 C248.9,55.8 249,55.9 249.1,55.9 L249.1,54.7 C249.1,54.7 248.9,54.6 248.6,54.6 C246.9,54.6 246.4,55.9 246.4,55.9 C246.4,55.2 246,54.6 245.2,54.6 C244.7,54.6 244.4,54.7 244.4,54.7 L244.4,55.7 C244.4,55.7 244.5,55.6 244.7,55.6 C245,55.6 245.1,55.7 245.1,56.1 L245.1,61.9 L246.4,62 Z M258.5,54.7 L256.3,54.7 L256.3,52.8 L255,52.8 L255,54.7 L254,54.7 L254,55.8 L255,55.8 L255,59.8 C255,61.2 255.6,62.1 257.5,62.1 C258,62.1 258.5,62 258.5,62 L258.5,60.9 C258.5,60.9 258.2,61 257.7,61 C256.7,61 256.4,60.5 256.4,59.5 L256.4,55.8 L258.6,55.8 L258.5,54.7 Z" id="Shape" fill="#FFFFFF" fill-rule="nonzero"></path>
            <path d="M997.3,11.4 C997.9,9.6 998.8,7.5 1000.1,6.2 L989.7,6.2 C989.5,6.1 989.3,6.1 989.2,6.1 C988.6,5.2 984.7,0.2 969.2,0.2 C952.2,0.2 949.1,6.2 949.1,6.2 L938.2,6.2 C939.6,7.6 940.6,10 941.1,11.9 C939.1,14.6 937.9,17.9 937.9,21.4 C937.9,30.2 945,37.3 953.8,37.3 C958.7,37.3 963,35.1 965.9,31.7 L969.5,36.8 L972.6,31.5 C975.5,35.1 979.9,37.3 984.9,37.3 C993.7,37.3 1000.8,30.2 1000.8,21.4 C1000.9,17.6 999.5,14.1 997.3,11.4 Z M953.8,34.2 C946.8,34.2 941,28.5 941,21.4 C941,14.4 946.7,8.6 953.8,8.6 C960.8,8.6 966.6,14.3 966.6,21.4 C966.6,28.5 960.8,34.2 953.8,34.2 Z M984.9,34.2 C977.9,34.2 972.1,28.5 972.1,21.4 C972.1,14.4 977.8,8.6 984.9,8.6 C992,8.6 997.7,14.3 997.7,21.4 C997.7,28.5 992,34.2 984.9,34.2 Z M948.4,16 C947,17.4 946.2,19.4 946.2,21.4 C946.2,23.4 947,25.4 948.4,26.8 C949.8,28.2 951.8,29 953.8,29 C958,29 961.4,25.6 961.4,21.4 C961.4,17.2 958,13.8 953.8,13.8 C951.7,13.8 949.8,14.6 948.4,16 Z M979.5,16 C978.1,17.4 977.3,19.4 977.3,21.4 C977.3,23.4 978.1,25.4 979.5,26.8 C980.9,28.2 982.9,29 984.9,29 C989.1,29 992.5,25.6 992.5,21.4 C992.5,17.2 989.1,13.8 984.9,13.8 C982.9,13.8 981,14.6 979.5,16 Z M950,25.2 C949,24.2 948.4,22.9 948.4,21.5 C948.4,20.1 949,18.8 950,17.8 C951,16.8 952.3,16.2 953.7,16.2 C956.6,16.2 959,18.6 959,21.5 C959,24.4 956.6,26.8 953.7,26.8 C952.4,26.7 951,26.2 950,25.2 Z M981.2,25.2 C980.2,24.2 979.6,22.9 979.6,21.5 C979.6,20.1 980.2,18.8 981.2,17.8 C982.2,16.8 983.5,16.2 984.9,16.2 C987.8,16.2 990.2,18.6 990.2,21.5 C990.2,24.4 987.8,26.8 984.9,26.8 C983.5,26.7 982.2,26.2 981.2,25.2 Z M951.2,21.4 C951.2,22.8 952.4,24 953.8,24 C955.2,24 956.4,22.8 956.4,21.4 C956.4,20 955.2,18.8 953.8,18.8 C952.4,18.8 951.2,20 951.2,21.4 Z M982.4,21.4 C982.4,22.8 983.6,24 985,24 C986.4,24 987.6,22.8 987.6,21.4 C987.6,20 986.4,18.8 985,18.8 C983.6,18.8 982.4,20 982.4,21.4 Z M954,6.5 C954,6.5 958.1,2 969,2 L970.1,2 C981,2 985.1,6.5 985.1,6.5 C985.1,6.5 973.5,4.6 969.6,18.9 C965.6,4.6 954,6.5 954,6.5 Z" id="Shape" fill="#455637" fill-rule="nonzero"></path>
            <path d="M665.1,8.9 C665,9.1 664.8,9.2 664.7,9.3 C664.5,9.4 664.3,9.5 664.1,9.5 C663.9,9.6 663.7,9.6 663.4,9.6 C663.1,9.6 662.9,9.6 662.6,9.5 C662.3,9.4 662.1,9.3 661.9,9.2 C661.7,9.1 661.5,8.9 661.3,8.7 C661.2,8.5 661.1,8.2 661.1,8 C661.1,7.8 661.2,7.5 661.3,7.4 C661.4,7.2 661.5,7.1 661.7,6.9 L662.3,6.6 C662.5,6.5 662.7,6.5 663,6.4 L663.9,6.4 C663.9,6.4 664,6.5 664.1,6.5 C664.2,6.6 664.3,6.6 664.3,6.6 C664.3,6.6 664.4,6.7 664.5,6.7 C664.6,6.8 664.7,6.8 664.7,6.9 L664.9,7.1 L665.1,7.3 L665.2,7.5 C665.3,7.6 665.3,7.6 665.3,7.7 C665.3,7.8 665.3,7.8 665.4,7.9 L665.4,8.1 C665.3,8.5 665.2,8.7 665.1,8.9 Z M664.3,4 C664.1,4.2 663.8,4.4 663.5,4.4 C663.3,4.4 663.1,4.3 662.9,4.2 C662.7,4.1 662.6,4 662.4,3.8 L662.1,3.2 C662,3 661.9,2.8 661.9,2.6 L661.8,2 C661.8,1.6 661.9,1.3 662.1,1 C662.3,0.7 662.6,0.6 663,0.6 C663.3,0.6 663.5,0.7 663.7,0.8 C663.9,1 664.1,1.2 664.2,1.4 L664.5,2.2 C664.6,2.5 664.6,2.7 664.6,3 C664.6,3.5 664.5,3.8 664.3,4 Z M662.7,0.3 C662.1,0.4 661.7,0.7 661.3,1.2 C660.9,1.6 660.7,2.1 660.7,2.7 C660.7,3.3 660.9,3.8 661.3,4.2 C661.7,4.6 662.2,4.8 662.8,4.8 L663.2,4.8 L663.2,5.2 C663.2,5.5 663.3,5.8 663.6,6.1 C663.3,6.1 663,6.1 662.7,6.2 C662.4,6.2 662.1,6.3 661.8,6.4 C661.5,6.5 661.2,6.6 660.9,6.8 C660.6,7 660.5,7.2 660.3,7.5 C660.2,7.8 660.1,8.1 660.1,8.3 C660.1,8.6 660.2,8.8 660.3,9 C660.4,9.2 660.6,9.4 660.8,9.5 C661,9.6 661.2,9.8 661.5,9.8 C661.7,9.9 662,10 662.2,10 L662.9,10.1 C664,10.1 664.8,9.8 665.4,9.3 C666,8.8 666.2,8.2 666.2,7.6 C666.2,7.4 666.2,7.2 666.1,7 C666,6.8 665.9,6.6 665.8,6.5 C665.7,6.4 665.6,6.2 665.4,6.1 L665,5.8 C664.9,5.7 664.8,5.6 664.6,5.5 L664.3,5.2 C664.2,5.1 664.2,5 664.2,4.9 C664.2,4.8 664.2,4.6 664.3,4.5 C664.4,4.4 664.5,4.3 664.6,4.1 C664.7,4 664.9,3.9 665,3.7 C665.1,3.6 665.2,3.4 665.3,3.1 C665.4,2.9 665.4,2.6 665.4,2.3 C665.4,1.9 665.3,1.6 665.2,1.3 C665,1 664.8,0.7 664.5,0.5 L665.3,0.5 L666.1,0 L663.5,0 C663.4,0.2 663,0.2 662.7,0.3 Z M668.5,1.7 L668.5,0.2 L667.7,0.2 L667.7,1.7 L666.2,1.7 L666.2,2.5 L667.7,2.5 L667.7,4 L668.5,4 L668.5,2.5 L670,2.5 L670,1.7 L668.5,1.7 Z M719.5,3.8 C719.5,0.2 724.7,-1 726.7,1.7 C727.6,2.9 727.4,4.8 726.6,6 C726.2,6.6 725.6,7.1 724.8,7.3 C724.1,7.5 723.1,7.4 722.8,6.7 C722.6,7.3 722.5,8 722.3,8.7 C722.2,9 722,9.3 721.8,9.6 L721.4,10.2 C721.2,10.3 721.2,10.2 721.2,9.9 L721.1,9.1 C721.1,8.2 721.4,7.3 721.6,6.4 L721.8,5.5 C721.8,5.3 722,5.1 721.9,4.9 L721.8,4.5 C721.7,4 721.7,3.5 722,3 C722.3,2.5 723,2.2 723.4,2.7 C723.8,3.2 723.5,4 723.3,4.5 C723.1,5 722.8,5.7 723.2,6.2 C723.6,6.7 724.3,6.6 724.8,6.2 C725.7,5.4 726.1,3.6 725.6,2.5 C725.1,1.3 723.6,1 722.4,1.4 C721.1,1.8 720.1,3.5 720.8,4.8 C721,5.2 721.2,5.4 721,5.8 C720.9,6.1 720.7,6.1 720.4,5.9 C719.8,5.4 719.5,4.5 719.5,3.8 Z" id="Shape" fill="#FFFFFF" fill-rule="nonzero"></path>
            <g id="Group" transform="translate(656.000000, 64.000000)" fill="#FFFFFF" fill-rule="nonzero">
                <path d="M3.5,4.3 C2.5,4.3 1.8,5.1 1.8,6 C1.8,7 2.6,7.7 3.5,7.7 C4.4,7.7 5.2,6.9 5.2,6 C5.3,5.1 4.5,4.3 3.5,4.3 Z M3.5,7.3 C2.8,7.3 2.2,6.7 2.2,6 C2.2,5.3 2.8,4.7 3.5,4.7 C4.2,4.7 4.8,5.3 4.8,6 C4.8,6.7 4.2,7.3 3.5,7.3 Z" id="Shape"></path>
                <circle id="Oval" cx="3.5" cy="6" r="1"></circle>
                <path d="M10.5,4.3 C9.5,4.3 8.8,5.1 8.8,6 C8.8,7 9.6,7.7 10.5,7.7 C11.4,7.7 12.2,6.9 12.2,6 C12.2,5.1 11.5,4.3 10.5,4.3 Z M10.5,7.3 C9.8,7.3 9.2,6.7 9.2,6 C9.2,5.3 9.8,4.7 10.5,4.7 C11.2,4.7 11.8,5.3 11.8,6 C11.8,6.7 11.2,7.3 10.5,7.3 Z" id="Shape"></path>
                <circle id="Oval" cx="10.5" cy="6" r="1"></circle>
                <path d="M13,3.5 L14,2.5 L11.9,2.5 C10.7,1.5 8.8,0.8 7,0.8 C5.2,0.8 3.3,1.6 2.1,2.5 L0,2.5 L1,3.5 C0.4,4.1 0,5 0,6 C0,7.9 1.6,9.5 3.5,9.5 C4.4,9.5 5.2,9.2 5.8,8.6 L7,9.5 L8.2,8.7 C8.8,9.3 9.6,9.6 10.5,9.6 C12.4,9.6 14,8 14,6.1 C14,5.1 13.6,4.2 13,3.5 Z M10.1,2.6 C8.4,2.8 7.1,4.2 7,5.9 C6.9,4.2 5.6,2.8 3.9,2.6 C4.7,2 5.8,1.7 7,1.7 C8.2,1.7 9.2,2 10.1,2.6 Z M3.5,8.6 C2.1,8.6 0.9,7.4 0.9,6 C0.9,4.6 2.1,3.4 3.5,3.4 C4.9,3.4 6.1,4.6 6.1,6 C6.1,7.5 5,8.6 3.5,8.6 Z M10.5,8.6 C9.1,8.6 7.9,7.4 7.9,6 C7.9,4.6 9.1,3.4 10.5,3.4 C11.9,3.4 13.1,4.6 13.1,6 C13.1,7.5 11.9,8.6 10.5,8.6 Z" id="Shape"></path>
            </g>
            <circle id="Oval" fill="#EC2227" fill-rule="nonzero" cx="965.7" cy="65.1" r="1.3"></circle>
            <circle id="Oval" fill="#01A64F" fill-rule="nonzero" cx="981.4" cy="65.1" r="1.3"></circle>
            <path d="M962.9,62.3 C962.2,63 961.8,64 961.8,65.1 C961.8,66.1 962.2,67.1 962.9,67.9 C963.6,68.6 964.6,69 965.6,69 C967.7,69 969.5,67.2 969.5,65.1 C969.5,62.9 967.8,61.2 965.6,61.2 C964.6,61.1 963.6,61.6 962.9,62.3 Z M963.8,67 C963.3,66.5 963,65.8 963,65.1 C963,64.4 963.3,63.7 963.8,63.2 C964.3,62.7 965,62.4 965.7,62.4 C967.2,62.4 968.4,63.6 968.4,65.1 C968.4,66.6 967.2,67.8 965.7,67.8 C964.9,67.8 964.3,67.5 963.8,67 Z" id="Shape" fill="#231F20" fill-rule="nonzero"></path>
            <path d="M978.7,62.3 C978,63 977.6,64 977.6,65.1 C977.6,66.1 978,67.1 978.7,67.9 C979.4,68.6 980.4,69 981.4,69 C983.5,69 985.3,67.2 985.3,65.1 C985.3,62.9 983.6,61.2 981.4,61.2 C980.4,61.1 979.4,61.6 978.7,62.3 Z M979.5,67 C979,66.5 978.7,65.8 978.7,65.1 C978.7,64.4 979,63.7 979.5,63.2 C980,62.7 980.7,62.4 981.4,62.4 C982.9,62.4 984.1,63.6 984.1,65.1 C984.1,66.6 982.9,67.8 981.4,67.8 C980.7,67.8 980,67.5 979.5,67 Z" id="Shape" fill="#231F20" fill-rule="nonzero"></path>
            <path d="M981.4,58.5 C977.8,58.5 974.9,61.4 974.9,65.1 C974.9,68.7 977.8,71.7 981.4,71.7 C985,71.7 987.9,68.8 987.9,65.1 C987.9,61.5 985,58.5 981.4,58.5 Z" id="Shape"></path>
            <path d="M965.7,58.5 C962.1,58.5 959.2,61.4 959.2,65.1 C959.2,68.7 962.1,71.7 965.7,71.7 C969.3,71.7 972.2,68.8 972.2,65.1 C972.1,61.5 969.2,58.5 965.7,58.5 Z" id="Shape"></path>
            <path d="M987.7,59.9 C988,59 988.5,57.9 989.1,57.3 L983.8,57.3 C983.7,57.3 983.6,57.3 983.5,57.2 C983.2,56.7 981.2,54.2 973.4,54.2 C964.8,54.2 963.2,57.3 963.2,57.3 L957.7,57.3 C958.4,58 958.9,59.2 959.2,60.2 C958.2,61.6 957.6,63.3 957.6,65.1 C957.6,69.6 961.2,73.3 965.7,73.3 C968.2,73.3 970.4,72.2 971.8,70.4 L973.6,73 L975.2,70.3 C976.7,72.1 978.9,73.3 981.4,73.3 C985.8,73.3 989.5,69.6 989.5,65.1 C989.5,63.1 988.8,61.3 987.7,59.9 Z M965.7,71.6 C962.1,71.6 959.2,68.7 959.2,65 C959.2,61.4 962.1,58.4 965.7,58.4 C969.3,58.4 972.2,61.3 972.2,65 C972.1,68.7 969.2,71.6 965.7,71.6 Z M965.8,57.4 C965.8,57.4 967.9,55.1 973.4,55.1 L973.9,55.1 C979.4,55.1 981.5,57.4 981.5,57.4 C981.5,57.4 975.6,56.4 973.6,63.8 C971.7,56.4 965.8,57.4 965.8,57.4 Z M981.4,71.6 C977.8,71.6 974.9,68.7 974.9,65 C974.9,61.4 977.8,58.4 981.4,58.4 C985,58.4 987.9,61.3 987.9,65 C987.9,68.7 985,71.6 981.4,71.6 Z" id="Shape" fill="#231F20" fill-rule="nonzero"></path>
            <g id="Group" transform="translate(949.000000, 74.000000)" fill="#000000" fill-rule="nonzero">
                <path d="M2.6,1.2 L2.6,2.5 L4,2.5 L4,3.3 L2.6,3.3 L2.6,6.2 C2.6,6.9 2.8,7.3 3.3,7.3 C3.6,7.3 3.7,7.3 3.9,7.2 L3.9,8 C3.7,8.1 3.4,8.1 3,8.1 C2.5,8.1 2.2,7.9 2,7.7 C1.7,7.4 1.6,6.9 1.6,6.3 L1.6,3.3 L0.8,3.3 L0.8,2.5 L1.6,2.5 L1.6,1.5 L2.6,1.2 Z" id="Shape"></path>
                <path d="M4.8,4.2 C4.8,3.6 4.8,3 4.8,2.5 L5.7,2.5 L5.7,3.6 C5.9,2.9 6.5,2.4 7.2,2.4 C7.3,2.4 7.4,2.4 7.5,2.4 L7.5,3.3 C7.4,3.3 7.3,3.3 7.2,3.3 C6.5,3.3 6,3.8 5.9,4.6 C5.9,4.7 5.9,4.9 5.9,5.1 L5.9,8 L4.9,8 L4.8,4.2 Z" id="Shape"></path>
                <path d="M8.7,1.5 C8.3,1.5 8.1,1.2 8.1,0.9 C8.1,0.6 8.4,0.3 8.7,0.3 C9.1,0.3 9.3,0.6 9.3,0.9 C9.4,1.2 9.1,1.5 8.7,1.5 Z M8.3,7.9 L8.3,2.5 L9.3,2.5 L9.3,7.9 L8.3,7.9 Z" id="Shape"></path>
                <path d="M10.6,4.3 C10.6,3.6 10.6,3 10.6,2.5 L11.5,2.5 L11.6,3.4 C12,2.7 12.6,2.3 13.5,2.3 C14.8,2.3 15.8,3.4 15.8,5.1 C15.8,7 14.6,8 13.4,8 C12.7,8 12.1,7.7 11.8,7.1 L11.8,10 L10.8,10 L10.8,4.3 L10.6,4.3 Z M11.6,5.7 C11.6,5.8 11.6,6 11.6,6.1 C11.8,6.8 12.4,7.3 13,7.3 C14,7.3 14.6,6.4 14.6,5.2 C14.6,4.1 14,3.2 13,3.2 C12.3,3.2 11.7,3.7 11.5,4.4 C11.5,4.5 11.4,4.7 11.4,4.8 L11.4,5.7 L11.6,5.7 Z" id="Shape"></path>
                <path d="M20.4,6.6 C20.4,7.1 20.4,7.5 20.5,7.9 L19.6,7.9 L19.5,7.2 C19.2,7.6 18.6,8 17.9,8 C16.8,8 16.3,7.2 16.3,6.4 C16.3,5.1 17.4,4.4 19.5,4.4 L19.5,4.3 C19.5,3.9 19.4,3 18.3,3 C17.8,3 17.3,3.1 16.9,3.4 L16.7,2.7 C17.1,2.4 17.8,2.2 18.5,2.2 C20.1,2.2 20.5,3.3 20.5,4.4 L20.5,6.6 L20.4,6.6 Z M19.5,5.2 C18.4,5.2 17.2,5.4 17.2,6.4 C17.2,7 17.6,7.3 18.1,7.3 C18.8,7.3 19.3,6.9 19.4,6.4 C19.4,6.3 19.4,6.2 19.4,6.1 L19.4,5.2 L19.5,5.2 Z" id="Shape"></path>
                <path d="M26.4,0 L26.4,6.5 C26.4,7 26.4,7.5 26.4,7.9 L25.5,7.9 L25.5,7 C25.2,7.6 24.6,8.1 23.7,8.1 C22.4,8.1 21.4,7 21.4,5.3 C21.4,3.5 22.5,2.4 23.8,2.4 C24.6,2.4 25.2,2.8 25.4,3.2 L25.4,0 L26.4,0 Z M25.4,4.7 C25.4,4.6 25.4,4.4 25.4,4.3 C25.3,3.7 24.7,3.2 24,3.2 C23,3.2 22.4,4.1 22.4,5.3 C22.4,6.4 22.9,7.3 24,7.3 C24.7,7.3 25.2,6.9 25.4,6.1 C25.4,6 25.4,5.8 25.4,5.7 L25.4,4.7 Z" id="Shape"></path>
                <path d="M28.1,2.5 L29.1,5.5 C29.3,6 29.4,6.5 29.5,6.9 C29.6,6.5 29.8,6 30,5.5 L31,2.5 L32,2.5 L29.9,7.9 L29,7.9 L27,2.5 L28.1,2.5 Z" id="Shape"></path>
                <path d="M33.3,1.5 C32.9,1.5 32.7,1.2 32.7,0.9 C32.7,0.6 33,0.3 33.3,0.3 C33.7,0.3 33.9,0.6 33.9,0.9 C33.9,1.2 33.7,1.5 33.3,1.5 Z M32.8,7.9 L32.8,2.5 L33.8,2.5 L33.8,7.9 L32.8,7.9 Z" id="Shape"></path>
                <path d="M35,7 C35.3,7.2 35.8,7.4 36.3,7.4 C37,7.4 37.3,7.1 37.3,6.6 C37.3,6.1 37,5.9 36.3,5.6 C35.3,5.2 34.9,4.7 34.9,4.1 C34.9,3.2 35.6,2.5 36.7,2.5 C37.2,2.5 37.7,2.6 38,2.8 L37.8,3.5 C37.6,3.4 37.2,3.2 36.7,3.2 C36.1,3.2 35.8,3.5 35.8,3.9 C35.8,4.4 36.1,4.6 36.8,4.8 C37.7,5.1 38.2,5.6 38.2,6.4 C38.2,7.4 37.5,8 36.2,8 C35.6,8 35.1,7.8 34.7,7.6 L35,7 Z" id="Shape"></path>
                <path d="M41.5,8.1 C40.1,8.1 38.9,7 38.9,5.3 C38.9,3.5 40.1,2.4 41.6,2.4 C43.1,2.4 44.2,3.5 44.2,5.2 C44.1,7.2 42.8,8.1 41.5,8.1 Z M41.5,7.3 C42.4,7.3 43.1,6.4 43.1,5.2 C43.1,4.3 42.6,3.1 41.5,3.1 C40.4,3.1 39.9,4.2 39.9,5.2 C39.9,6.4 40.6,7.3 41.5,7.3 Z" id="Shape"></path>
                <path d="M45.1,4.2 C45.1,3.6 45.1,3 45.1,2.5 L46,2.5 L46,3.6 C46.2,2.9 46.8,2.4 47.5,2.4 C47.6,2.4 47.7,2.4 47.8,2.4 L47.8,3.3 C47.7,3.3 47.6,3.3 47.5,3.3 C46.8,3.3 46.3,3.8 46.2,4.6 C46.2,4.7 46.2,4.9 46.2,5.1 L46.2,8 L45.2,8 L45.1,4.2 Z" id="Shape"></path>
            </g>
            <g id="Group" transform="translate(997.000000, 75.000000)" fill="#000000" fill-rule="nonzero">
                <path d="M1.3,1.5 C1.4,1.5 1.5,1.5 1.6,1.5 C1.8,1.5 1.9,1.5 2,1.6 C2.1,1.7 2.1,1.7 2.1,1.8 C2.1,1.9 2,2 1.9,2.1 C2,2.1 2,2.2 2,2.3 C2,2.4 2.1,2.6 2.1,2.6 L1.8,2.6 C1.8,2.6 1.8,2.5 1.7,2.3 C1.7,2.2 1.6,2.1 1.5,2.1 L1.4,2.1 L1.4,2.6 L1.2,2.6 L1.2,1.5 L1.3,1.5 Z M1.5,2 C1.7,2 1.8,1.9 1.8,1.8 C1.8,1.7 1.7,1.6 1.6,1.6 C1.5,1.6 1.5,1.6 1.5,1.6 L1.5,2 Z" id="Shape"></path>
                <path d="M0.5,2.1 C0.5,2.7 1,3.3 1.6,3.3 C2.2,3.3 2.7,2.8 2.7,2.1 C2.7,1.5 2.2,0.9 1.6,0.9 C1,0.9 0.5,1.4 0.5,2.1 Z M0.8,2.1 C0.8,1.6 1.2,1.2 1.7,1.2 C2.2,1.2 2.6,1.6 2.6,2.1 C2.6,2.6 2.2,3 1.7,3 C1.2,3 0.8,2.6 0.8,2.1 Z" id="Shape"></path>
            </g>
        </g>
    </g>
</svg>