<svg id="Layer_1" xmlns="http://www.w3.org/2000/svg" viewBox="0 0 5630.4 1322.7"><style>.st0{fill:#d9ecf9}.st3{opacity:.53}.st4{fill:#1276b8}.st5{opacity:.39}.st6{fill:#f5fcff}.st7{fill:#005791}</style><path class="st0" d="M2405.2 406.1c-.4-.5-.8-1.1-1.2-1.6-7-11.3.9-24.2 17.5-28.9 7.3-2.1 15-2.2 22-.8-2.8-14.7 9-29.5 30.1-35.4 20.8-5.9 44.1-1.5 57.7 9.8 5.7-4.6 13-8.3 21.7-10.8 20.7-5.9 43.5-2.8 59.3 6.5-4.6-3.6-8.4-7.7-11.2-12.4-14.7-23.8 1.9-51.2 37-61.2 4.5-1.3 9.1-2.2 13.7-2.8-.9-2.1-1.6-4.3-2-6.6-4.7-24.2 20.4-46.4 56.1-49.6 6.3-.6 12.6-.5 18.6.2 12.8-12 30.5-21.8 52.1-28 33-9.4 68.7-8.2 98.9 1.2.7-7.3 7.3-14 17.8-17 14.9-4.2 32 .5 38.2 10.6.7 1.2 1.2 2.3 1.6 3.5 1-.4 2.1-.7 3.1-1 21.2-6 45.2-.3 56.6 12.7 18.7-13.3 42.2-23 67.8-28.3 8.5-13.3 26.7-23.3 49.5-25.4 22.7-2 44.1 4.4 57.4 15.7 8.7-5 21.1-6.8 32.5-3.9 7.4 1.9 13.2 5.3 16.8 9.6 12.8-12 36.2-17.4 57.7-12 21.1 5.3 33.8 19.3 32.4 33.9 8.8-.7 17.9-.1 26.7 2.1 21 5.3 34.6 18.1 36.8 32.2.3-4.7 1.7-9.5 4.2-14.2 13.3-24.2 52.9-36.6 88.7-27.6 18.6 4.7 32.4 14.2 39.5 25.7 3.3.2 6.7.6 10 1.1 32.2-27.4 87.9-39 138.9-26.1 33.6 8.4 58.5 25.8 71 46.6 7.8-5 19.4-6.9 30.2-4.2 10.3 2.6 17.2 8.7 18.7 15.6 38.7-9.6 82.2-5.4 115.3 11.1 3-1.1 6.1-2.1 9.2-2.9 2.5-12.3 12.2-24 28.4-31.7 31-15 74.1-10 96.2 11 4.3 4.1 7.4 8.5 9.6 13-3.3-14 5-28.8 23.2-37.6 7.7-3.7 16.3-5.9 25-6.7-6.9-13.8-.1-29.5 18.3-38.4 18.7-9 43.4-8 60.3 1.4 1.9-4.8 6.2-9.1 12.6-12.2 14.7-7.1 35.1-4.7 45.5 5.2.5.5 1 1 1.4 1.5 67.4-31 158.2-21.6 209 20.8 9.3 1.3 18.3 3.3 26.9 5.9.7-7.3 7.3-14 17.8-17 14.9-4.2 32 .5 38.2 10.6.7 1.2 1.2 2.3 1.6 3.5 1-.4 2.1-.7 3.1-1 21.2-6 45.2-.3 56.6 12.7 18.7-13.3 42.2-23 67.8-28.3 8.5-13.3 26.7-23.3 49.5-25.4 22.7-2 44.1 4.4 57.4 15.7 8.7-5 21.1-6.8 32.5-3.9 7.4 1.9 13.2 5.3 16.8 9.6 12.8-12 36.2-17.4 57.7-12 21.1 5.3 33.8 19.3 32.4 33.9 8.8-.7 17.9-.1 26.7 2.1 21 5.3 34.6 18.1 36.8 32.2.3-4.7 1.7-9.5 4.2-14.2 13.3-24.2 52.9-36.6 88.7-27.6 18.6 4.7 32.4 14.2 39.5 25.7 3.3.2 6.7.6 10 1.1 32.2-27.4 87.9-39 138.9-26.1 33.6 8.4 58.5 25.8 71 46.6 7.8-5 19.4-6.9 30.2-4.2 10.3 2.6 17.2 8.7 18.7 15.6 38.7-9.6 82.2-5.4 115.3 11.1 3-1.1 6.1-2.1 9.2-2.9 2.5-12.3 12.2-24 28.4-31.7 31-15 74.1-10 96.2 11 4.3 4.1 7.4 8.5 9.6 13-3.3-14 5-28.8 23.2-37.6 7.7-3.7 16.3-5.9 25-6.7-6.9-13.8-.1-29.5 18.3-38.4 18.7-9 43.4-8 60.3 1.4 1.9-4.8 6.2-9.1 12.6-12.2 14.7-7.1 35.1-4.7 45.5 5.2.5.5 1 1 1.4 1.5 70.2-32.3 165.9-20.8 215.2 26.3 23.6 22.5 32.4 49.2 27.7 74.6 24.5 10.1 45.9 23.3 62.9 39.6 83 79.2 31.6 200.5-114.8 271s-332.3 63.5-415.3-15.6c-11.2-10.7-20-22.2-26.4-34.2-4.5 7.9-12.4 15-23.3 20.3-29.7 14.3-71 9.6-92.1-10.6-7.3-6.9-11.2-14.8-12-22.7-5.2 4.2-11.2 7.9-18.1 11.2-29.9 14.4-67.7 15.8-98.7 5.8-21.1 7.9-48 3.9-62.3-9.7s-10.9-32.1 7-43.1c-1.1-6.6-.6-13.2 1.2-19.7-4.2-1.4-8.1-3-11.9-4.7 2.2 7.8 1.4 16-3 24-12.7 23.2-50.7 35-84.9 26.4-12.6-3.2-22.9-8.7-30.3-15.5-1.6 12.7-5.6 25.3-12.4 37.7-49.8 91.1-226.7 130.5-395.1 88.2-35.7-9-68.1-20.9-96.6-35-14 68.7-94 136.1-214 170.2-165.7 47-344.8 12.4-400.1-77.2-11.3-18.4-16.6-37.7-16.3-57.1-31.9-10-59-27.2-75.3-50.1-20.8.1-41.4-6.4-54.4-18.8-7.3-6.9-11.2-14.8-12-22.7-5.2 4.2-11.2 7.9-18.1 11.2-29.9 14.4-67.7 15.8-98.7 5.8-21.1 7.9-48 3.9-62.3-9.7-14.3-13.6-10.9-32.1 7-43.1-1.1-6.6-.6-13.2 1.2-19.7-4.2-1.4-8.1-3-11.9-4.7 2.2 7.8 1.4 16-3 24-12.7 23.2-50.7 35-84.9 26.4-12.6-3.2-22.9-8.7-30.3-15.5-1.6 12.7-5.6 25.3-12.4 37.7-49.8 91.1-226.7 130.5-395.1 88.2-35.7-9-68.1-20.9-96.6-35-14 68.7-94 136.1-214 170.2-165.7 47-344.8 12.4-400.1-77.2-11.3-18.4-16.6-37.7-16.3-57.1-34.3-10.7-63.1-29.9-78.8-55.4-32.5-53.1 3.7-114.3 81.2-137.6zm3038.3 42.2c1.1-.5 2.3-1.1 3.5-1.5-2.5-1.5-5-3.1-7.4-4.7-.2.3-.4.5-.7.8.1 2.7 0 5.4-.3 8.1 1.6-1 3.2-1.9 4.9-2.7zm-252.2-53.9c2 .5 3.9 1.1 5.7 1.7-1.4-2.5-2.5-5.1-3.4-7.7l-.9-.6c-1.7 2-3.5 3.9-5.3 5.8 1.2.2 2.5.5 3.9.8zm-1325 63.7c1.1-.5 2.3-1.1 3.5-1.5-2.5-1.5-5-3.1-7.4-4.7-.2.3-.4.5-.7.8.1 2.7 0 5.4-.3 8.1 1.6-1 3.2-1.9 4.9-2.7zM3614 404.2c2 .5 3.9 1.1 5.7 1.7-1.4-2.5-2.5-5.1-3.4-7.7l-.9-.6c-1.7 2-3.5 3.9-5.3 5.8 1.3.1 2.6.4 3.9.8z"/><path class="st0" d="M3221.3 405.1c.4-.5.8-1.1 1.1-1.6 6.9-11.3-.9-24.2-17.3-28.9-7.2-2.1-14.8-2.2-21.7-.8 2.8-14.7-8.9-29.5-29.7-35.4-20.5-5.9-43.5-1.5-56.9 9.8-5.6-4.6-12.8-8.3-21.4-10.8-20.4-5.9-42.9-2.8-58.5 6.5 4.5-3.6 8.3-7.7 11.1-12.4 14.5-23.8-1.9-51.2-36.5-61.2-4.4-1.3-8.9-2.2-13.5-2.8.9-2.1 1.6-4.3 2-6.6 4.6-24.2-20.1-46.4-55.3-49.6-6.3-.6-12.4-.5-18.4.2-12.6-12-30.1-21.8-51.4-28-32.6-9.4-67.7-8.2-97.5 1.2-.7-7.3-7.2-14-17.6-17-14.7-4.2-31.5.5-37.7 10.6-.7 1.2-1.2 2.3-1.6 3.5-1-.4-2-.7-3.1-1-20.9-6-44.6-.3-55.8 12.7-18.5-13.3-41.6-23-66.9-28.3-8.4-13.3-26.4-23.3-48.8-25.4-22.4-2-43.5 4.4-56.6 15.7-8.6-5-20.8-6.8-32.1-3.9-7.3 1.9-13 5.3-16.6 9.6-12.6-12-35.7-17.4-56.9-12-20.9 5.3-33.3 19.3-31.9 33.9-8.6-.7-17.6-.1-26.4 2.1-20.7 5.3-34.2 18.1-36.3 32.2-.3-4.7-1.7-9.5-4.2-14.2-13.1-24.2-52.2-36.6-87.4-27.6-18.3 4.7-31.9 14.2-39 25.7-3.3.2-6.6.6-9.9 1.1-31.8-27.4-86.7-39-137-26.1-33.1 8.4-57.7 25.8-70.1 46.6-7.7-5-19.2-6.9-29.8-4.2-10.2 2.6-16.9 8.7-18.4 15.6-38.2-9.6-81.1-5.4-113.7 11.1-3-1.1-6-2.1-9.1-2.9-2.5-12.3-12-24-28-31.7-30.6-15-73.1-10-94.9 11-4.2 4.1-7.3 8.5-9.4 13 3.3-14-4.9-28.8-22.9-37.6-7.6-3.7-16-5.9-24.6-6.7 6.8-13.8.1-29.5-18-38.4-18.4-9-42.8-8-59.5 1.4-1.9-4.8-6.1-9.1-12.4-12.2-14.5-7.1-34.6-4.7-44.9 5.2-.5.5-1 1-1.4 1.5-66.4-31-156-21.6-206.2 20.8-9.1 1.3-18 3.3-26.5 5.9-.7-7.3-7.2-14-17.6-17-14.7-4.2-31.5.5-37.7 10.6-.7 1.2-1.2 2.3-1.6 3.5-1-.4-2-.7-3.1-1-20.9-6-44.6-.3-55.8 12.7-18.5-13.3-41.6-23-66.9-28.3-8.4-13.3-26.4-23.3-48.8-25.4-22.4-2-43.5 4.4-56.6 15.7-8.6-5-20.8-6.8-32.1-3.9-7.3 1.9-13 5.3-16.6 9.6-12.6-12-35.7-17.4-56.9-12-20.9 5.3-33.3 19.3-31.9 33.9-8.6-.7-17.6-.1-26.4 2.1-20.7 5.3-34.2 18.1-36.3 32.2-.3-4.7-1.7-9.5-4.2-14.2-13.1-24.2-52.2-36.6-87.4-27.6-18.3 4.7-31.9 14.2-39 25.7-3.3.2-6.6.6-9.9 1.1-31.8-27.4-86.7-39-137-26.1-33.1 8.4-57.7 25.8-70.1 46.6-7.7-5-19.2-6.9-29.8-4.2-10.2 2.6-16.9 8.7-18.4 15.6-38.2-9.6-81.1-5.4-113.7 11.1-3-1.1-6-2.1-9.1-2.9-2.5-12.3-12-24-28-31.7-30.6-15-73.1-10-94.9 11-4.2 4.1-7.3 8.5-9.4 13 3.3-14-4.9-28.8-22.9-37.6-7.6-3.7-16-5.9-24.6-6.7 6.8-13.8.1-29.5-18-38.4-18.4-9-42.8-8-59.5 1.4-1.9-4.8-6.1-9.1-12.4-12.2-14.5-7.1-34.6-4.7-44.9 5.2-.5.5-1 1-1.4 1.5-69.2-32.3-163.6-20.8-212.3 26.3-23.3 22.5-32 49.2-27.3 74.6-24.1 10.1-45.2 23.3-62 39.6-81.9 79.2-31.2 200.5 113.2 271S18.3 613 100.2 533.9c11.1-10.7 19.7-22.2 26-34.2 4.4 7.9 12.2 15 23 20.3 29.3 14.3 70 9.6 90.8-10.6 7.2-6.9 11.1-14.8 11.9-22.7 5.1 4.2 11.1 7.9 17.8 11.2 29.5 14.4 66.8 15.8 97.4 5.8 20.8 7.9 47.3 3.9 61.4-9.7s10.8-32.1-6.9-43.1c1-6.6.6-13.2-1.2-19.7 4.1-1.4 8-3 11.7-4.7-2.2 7.8-1.4 16 2.9 24 12.5 23.2 50 35 83.7 26.4 12.4-3.2 22.6-8.7 29.8-15.5 1.6 12.7 5.6 25.3 12.2 37.7 49.2 91.1 223.7 130.5 389.7 88.2 35.2-9 67.2-20.9 95.3-35 13.8 68.7 92.7 136.1 211.1 170.2 163.4 47 340.1 12.4 394.6-77.2 11.2-18.4 16.4-37.7 16.1-57.1 31.5-10 58.2-27.2 74.3-50.1 20.6.1 40.9-6.4 53.7-18.8 7.2-6.9 11.1-14.8 11.9-22.7 5.1 4.2 11.1 7.9 17.8 11.2 29.5 14.4 66.8 15.8 97.4 5.8 20.8 7.9 47.3 3.9 61.4-9.7 14.1-13.6 10.8-32.1-6.9-43.1 1-6.6.6-13.2-1.2-19.7 4.1-1.4 8-3 11.7-4.7-2.2 7.8-1.4 16 2.9 24 12.5 23.2 50 35 83.7 26.4 12.4-3.2 22.6-8.7 29.8-15.5 1.6 12.7 5.6 25.3 12.2 37.7 49.2 91.1 223.7 130.5 389.7 88.2 35.2-9 67.2-20.9 95.3-35 13.8 68.7 92.7 136.1 211.1 170.2 163.4 47 340.1 12.4 394.6-77.2 11.2-18.4 16.4-37.7 16.1-57.1 33.9-10.7 62.2-29.9 77.7-55.4 32.7-53.1-3-114.3-79.4-137.6zM224.5 447.3c-1.1-.5-2.3-1.1-3.4-1.5 2.5-1.5 4.9-3.1 7.3-4.7.2.3.4.5.7.8-.1 2.7 0 5.4.3 8.1-1.6-1-3.2-1.9-4.9-2.7zm248.8-53.9c-1.9.5-3.8 1.1-5.6 1.7 1.3-2.5 2.5-5.1 3.3-7.7l.9-.6c1.7 2 3.4 3.9 5.3 5.8-1.3.2-2.6.5-3.9.8zm1306.9 63.7c-1.1-.5-2.3-1.1-3.4-1.5 2.5-1.5 4.9-3.1 7.3-4.7.2.3.4.5.7.8-.1 2.7 0 5.4.3 8.1-1.7-1-3.3-1.9-4.9-2.7zm248.8-53.9c-1.9.5-3.8 1.1-5.6 1.7 1.3-2.5 2.5-5.1 3.3-7.7l.9-.6c1.7 2 3.4 3.9 5.3 5.8-1.4.1-2.7.4-3.9.8z"/><linearGradient id="SVGID_1_" gradientUnits="userSpaceOnUse" x1="2830.95" y1="833.296" x2="2830.95" y2="1283.246"><stop offset="0" stop-color="#abd5f2"/><stop offset="1" stop-color="#fff" stop-opacity="0"/></linearGradient><path fill="url(#SVGID_1_)" d="M5540.7 422.4L5318 322.6l-71.5 32-261.6-117.2-100.1 44.8-29.3-13.1-197.8 88.7-44.8-20.1-246.2 110.4-190.4-85.3-54.9 24.5-220-98.6-98.7 44.2-98.6-44.2-17.2 7.7-131.6-59-288.4 129.2-98.3-44-21.9 9.8L3081 303l-90 40.3-189.6-81.8V276l-167.8 76.3-88.8-40.3-64.7 29.4-21.7-9.8-96.9 44L2077 246.4l-129.8 59-16.9-7.7-97.3 44.2-97.3-44.2-217.1 98.6-54.1-24.5-187.7 85.3-242.9-110.4-44.2 20.1-195.1-88.7-28.9 13.1-98.7-44.8-258.1 117.2-70.5-32-219.6 99.8-179-81.3v956.4h2871.1V459.7l.3 1.2v786.6h2910.9V341.1z"/><linearGradient id="SVGID_2_" gradientUnits="userSpaceOnUse" x1="2779.95" y1="1049.253" x2="2779.95" y2="1301.274"><stop offset="0" stop-color="#1276b8"/><stop offset="1" stop-color="#fff" stop-opacity="0"/></linearGradient><path opacity=".53" fill="url(#SVGID_2_)" d="M5479.3 368.2l-203.8 90-203.7-90-169.1 74.6-97.3-43-36.9 16.3-294-129.8-37.8 16.7L4198 197.5l-438.6 193.7-38.5-17-100.2 44.3L3502 366l-192.5 85.1-63-27.9-43.8 19.4-267.2-118-135.1 59.6-39.5-17.4V365l-40.6 18.2-133.2-59.6-263.6 118-43.2-19.4-62.1 27.9-189.9-85.1-117.1 52.5-98.8-44.3-38 17-432.5-193.7L1106.4 302l-37.3-16.7-290 129.8-36.4-16.3-96 43L480 367.2l-201 90-201-90-188.2 84.3v855l2869.4 1h2910.9v-855z"/><g class="st3"><path class="st4" d="M2078.3 626.9l69.5-31.2v-8.8H1989zM779 586.9l13.7 6.2 13.8-6.2zm612.9 208.5l432.5-193.7 38 17 71-31.8H851.7l267.4 119.7 37.3-16.7z"/></g><g class="st5"><path class="st6" d="M645.7 442.8l96-43 36.4 16.3 290-129.8 37.3 16.7 64.3 37.9-21.3-57.2 192.5-86.2-62.8 105.1h62.8l-16.5 117.7 71.8 35.5-226.5 63.8-191.5 79.7v-46.2l130.8-97.3-6.3-57.4-41.5 41.4-232.9 86.1-60.6 73.4 16-102.1zM479 368.2l-23.9 62 11.9 41.5-72.5 31.9L278 458.2zm-402 0l-52.6 67.7-35.1 23.1 43.9 70.1-144.4 25.3V452.5zm1734.4 6l21.8 61.7-59.8-44.7zm215.9-8.2l32.4 39.1-32.4 30.8 16.2 48.6-133.3-66zm252 57.2l-15.4 38.1 15.4 23.2-62.1-33.4zm306.8-98.6L2551 366l17.5 39.1-39.9 18.1 57.5 80.4-114.9-42.3-44.6 23.2-104.1-41.9z"/></g><path class="st4" d="M1151.4 736.1l-121.8-54.7-121.8 54.7-39-17.5L702 793.5 478.2 692.9l-173.3 77.8-102.1-45.9-232.9 104.6V576.9h2.7l-2.7-71.8c16-5 107-.6 123.7-2.7 47.2-6.1 93.3-4.3 141.5-6.2 83.9-3.3 166.6-1.5 250.1 1.9 48.7 2 96.8-6.3 145.4-7.4 61.5-1.4 128.6-19.1 189.7-.1 47.3 14.7 97.7 9.4 142.1 31.4 42.3 21 80.7 25.1 128.5 19.5 44-5.1 89.6-14.9 133.7-11.4 34.4 2.7 67.9 12 102.5 10.4 46.1-2.1 74.7 6.4 116.1 19 17.6 5.3 12.4 20.6 62.2 17.4l-354 159.2zm1689.5 273.4V571.3H2829c-42.2-6.6-86.2 3.2-128.9 3.6-25.4.2-48-3.1-73.2-2.5-23.7.6-47.8 4.7-71.2 5.1-.1.7-.2 1.3-.2 2-25.7 1.4-52.1-1.8-74.9 9.5-17.1 8.4-28.6 11.5-47.5 15.8-19.3 4.4-34.2 12.2-51.7 20.3-16.4 7.6-35.3 12.8-52.6 18.9-45.3 15.9-97.1 18.6-145.4 25.4-53.1 7.5-110.2 5.2-162.8-1.2-36.5-4.5-74.2-7.5-111.5-10.5-43.6-3.5-84.5 11.3-129 9.3-25.5-1.1-48.5-2.1-71.9 6.9-17.9 7-34.9 9.2-52.7 14.6-19.1 5.9-42.4 11-62.8 4.9-12.4-3.7-16.4-6.1-31.9-6.1H1540c-21.2 0-36 1.4-54.9 7.4-10.1 3.2-20.1 7.6-29.6 10.5l363.2 163.1 29.8-13.4 83.1 37.3 110.1-49.4 56.8 25.5 77.1-34.7L2383 927l62.6-28.1 246.3 110.7h149v-.1z"/><path class="st7" d="M1151.3 419.6l-121.8 54.7-121.8-54.7-39 17.5L702 362.2 478.1 462.8 304.8 385l-102.1 45.9-232.9-104.7v252.5h2.7l-2.7 71.8c16 5 107 .6 123.7 2.7 47.2 6.1 93.3 4.3 141.5 6.2 83.9 3.3 166.6 1.5 250.1-1.9 48.7-2 96.8 6.3 145.4 7.4 61.5 1.4 128.6 19.1 189.7.1 47.3-14.7 97.7-9.4 142.1-31.4 42.3-21 80.7-25.1 128.5-19.5 44 5.1 89.6 14.9 133.7 11.4 34.4-2.7 67.9-12 102.5-10.4 46.1 2.1 74.7-6.4 116.1-19 17.6-5.3 51.3-3.8 62.2-17.4l-354-159.1zm1689.6 285.7l-29.5-369.8-365.8 176.2-62.6-28.1-207.4 93.2-77.1-34.6-56.8 25.5-110.1-49.4-83.1 37.3-29.8-13.4-363.2 163.1c9.5 2.9 19.5 7.3 29.6 10.5 18.9 6 33.7 7.4 54.9 7.4h20.8c15.5 0 19.5-2.4 31.9-6.1 20.4-6.1 43.7-1 62.8 4.9 17.8 5.5 34.7 7.7 52.7 14.6 23.3 9.1 46.4 8 71.9 6.9 44.5-2 85.4 12.9 129 9.3 37.3-3 75-6.1 111.5-10.5 52.6-6.4 109.7-8.7 162.8-1.2 48.3 6.8 100.1 9.5 145.4 25.4 17.3 6.1 36.2 11.3 52.6 18.9 17.5 8.1 32.4 15.9 51.7 20.3 18.9 4.3 30.4 7.4 47.5 15.8 22.9 11.3 49.2 8.1 74.9 9.5 0 .7.1 1.3.2 2 23.5.3 47.5 4.4 71.2 5.1 25.2.6 47.8-2.7 73.2-2.5 42.7.4 86.7 10.1 128.9 3.6h11.9V705.3z"/><path fill="#1e3152" d="M2981.7 1009.5l-.2-.3-.1.3z"/><g class="st3"><path class="st4" d="M3564 627.9l-70.5-31.2v-8.8h161.1zm1317.4-40l-14 6.2-14-6.2zM4260 796.4l-438.6-193.7-38.5 17-72-31.8h1096.7l-271.1 119.7-37.8-16.7z"/></g><path class="st4" d="M2790.8 1010.5V572.3h12.1c42.8-6.6 87.4 3.2 130.7 3.6 25.8.2 48.6-3.1 74.2-2.5 24.1.6 48.4 4.7 72.2 5.1.1.7.2 1.3.2 2 26.1 1.4 52.8-1.8 76 9.5 17.3 8.4 29 11.5 48.1 15.8 19.6 4.4 34.7 12.2 52.4 20.3 16.6 7.6 35.8 12.8 53.3 18.9 46 15.9 98.4 18.6 147.4 25.4 53.9 7.5 111.8 5.2 165.1-1.2 37-4.5 75.2-7.5 113-10.5 44.2-3.5 85.7 11.3 130.8 9.3 25.8-1.1 49.2-2.1 72.9 6.9 18.2 7 35.3 9.2 53.4 14.6 19.4 5.9 43 11 63.7 4.9 12.5-3.7 16.6-6.1 32.4-6.1h21c21.5 0 36.5 1.4 55.6 7.4 10.3 3.2 20.3 7.6 30 10.5l-368.2 163.1-30.2-13.4-84.2 37.3-111.6-49.2-57.6 25.5-78.2-34.7-210.2 93.2-63.5-28.1-249.7 110.7h-151.1v-.1z"/><g class="st5"><path class="st6" d="M4903.7 442.8l-97.3-43-36.9 16.3-294-129.8-37.8 16.7-65.2 37.9 21.6-57.2-195.1-86.2 63.6 105.1H4199l16.7 117.7-72.8 35.5 229.6 63.8 194.1 79.7v-46.2L4434 455.8l6.5-57.4 42 41.4 236.1 86.1 61.5 73.4-16.2-102.1zm169.1-74.6l24.2 62-12.1 41.5 73.6 31.9 118-45.4zm407.5 0l53.4 67.7 35.5 23.1-44.4 70.1 146.3 25.3V452.5zm-1758.4 6l-22.1 61.7 60.6-44.7zM3503 366l-32.8 39.1 32.8 30.8-16.4 48.6 135.1-66zm-255.5 57.2l15.7 38.1-15.7 23.2 63-33.4zm-311-98.6l35.6 41.4-17.8 39.1 40.4 18.1-58.2 80.4 116.4-42.3 45.3 23.2 105.5-41.9z"/></g><path class="st7" d="M2743.4 581.5l68-246 380.2 177.2 63.5-28.1 210.3 93.2 78.2-34.6 57.6 25.5 111.6-49.4 84.2 37.3 30.2-13.4 368.2 163.1c-9.6 2.9-19.7 7.3-30 10.5-19.2 6-34.2 7.4-55.6 7.4h-21c-15.7 0-19.8-2.4-32.4-6.1-20.7-6.1-44.3-1-63.7 4.9-18 5.5-35.2 7.7-53.4 14.6-23.7 9.1-47 8-72.9 6.9-45.1-2-86.5 12.9-130.8 9.3-37.8-3-76-6.1-113-10.5-53.3-6.4-111.2-8.7-165.1-1.2-49 6.8-101.4 9.5-147.4 25.4-17.5 6.1-36.7 11.3-53.3 18.9-17.7 8.1-32.9 15.9-52.4 20.3-19.1 4.3-30.8 7.4-48.1 15.8-23.2 11.3-49.9 8.1-76 9.5 0 .7-.1 1.3-.2 2-23.8.3-48.2 4.4-72.2 5.1-25.5.6-48.4-2.7-74.2-2.5-43.3.4-87.9 10.1-130.7 3.6h-12.1l-47.5-258.7z"/><path class="st4" d="M4503.8 737.1l123.5-54.7 123.5 54.7 39.5-17.5 169.1 74.9 227-100.6 175.7 77.8 103.6-45.9 236.1 104.6V577.9h-2.8l2.8-71.8c-16.2-5-108.5-.6-125.4-2.7-47.8-6.1-94.6-4.3-143.5-6.2-85.1-3.3-168.9-1.5-253.6 1.9-49.3 2-98.2-6.3-147.4-7.4-62.3-1.4-130.4-19.1-192.4-.1-48 14.7-99.1 9.4-144 31.4-42.9 21-81.8 25.1-130.3 19.5-44.6-5.1-90.8-14.9-135.5-11.4-34.9 2.7-68.8 12-104 10.4-46.7-2.1-75.7 6.4-117.8 19-17.8 5.3-12.6 20.6-63.1 17.4l359 159.2z"/><path class="st7" d="M4535.3 432.6l123.5 54.7 123.5-54.7 39.5 17.5 169.1-74.9 227 100.6 175.7-77.8 103.6 45.9 236.1-104.6v252.5h-2.8l2.8 71.8c-16.2 5-108.5.6-125.4 2.7-47.8 6.1-94.6 4.3-143.5 6.2-85.1 3.3-168.9 1.5-253.6-1.9-49.3-2-98.2 6.3-147.4 7.4-62.3 1.4-130.4 19.1-192.4.1-48-14.7-99.1-9.4-144-31.4-42.9-21-81.8-25.1-130.3-19.5-44.6 5.1-90.8 14.9-135.5 11.4-34.9-2.7-68.8-12-104-10.4-46.7 2.1-75.7-6.4-117.8-19-17.8-5.3-52-3.8-63.1-17.4l359-159.2z"/><path fill="#1784b3" d="M6308 761.5h39.3v39.3H6308z"/><path fill="#32a7d9" d="M6308 803.5h39.3v39.3H6308z"/><path fill="#54ccff" d="M6308 869.5h39.3v39.3H6308z"/><path fill="#76d6ff" d="M6308 969.6h39.3v39.3H6308z"/><path fill="#98e0ff" d="M6308 1010.7h39.3v39.3H6308z"/><path fill="#baeaff" d="M6308 1052.7h39.3v39.3H6308z"/><path fill="#e0f6ff" d="M6308 1094.7h39.3v39.3H6308z"/><path class="st6" d="M6308 1137.8h39.3v39.3H6308z"/><path fill="#0a1e33" d="M6258.5 761.5h39.3v39.3h-39.3z"/><path fill="#2a3c51" d="M6258.5 803.5h39.3v39.3h-39.3z"/><path fill="#5f6c7c" d="M6258.5 869.5h39.3v39.3h-39.3z"/><path fill="#939ca6" d="M6258.5 969.6h39.3v39.3h-39.3z"/><path fill="#c2c7cd" d="M6258.5 1010.7h39.3v39.3h-39.3z"/><path fill="#e2e4e7" d="M6258.5 1052.7h39.3v39.3h-39.3z"/><path fill="#f2f3f4" d="M6258.5 1094.7h39.3v39.3h-39.3z"/><path fill="#fafafa" d="M6258.5 1136.8h39.3v39.3h-39.3z"/><path fill="#cc6509" d="M6456.2 761.5h39.3v39.3h-39.3z"/><path fill="#e68e22" d="M6456.2 803.5h39.3v39.3h-39.3z"/><path fill="#ffb940" d="M6456.2 869.5h39.3v39.3h-39.3z"/><path fill="#ffc766" d="M6456.2 969.6h39.3v39.3h-39.3z"/><path fill="#ffd58c" d="M6456.2 1010.7h39.3v39.3h-39.3z"/><path fill="#ffe3b3" d="M6456.2 1052.7h39.3v39.3h-39.3z"/><path fill="#fff2dd" d="M6456.2 1094.7h39.3v39.3h-39.3z"/><path fill="#fffbf4" d="M6456.2 1136.8h39.3v39.3h-39.3z"/><path fill="#9e1115" d="M6407.5 761.5h39.3v39.3h-39.3z"/><path fill="#c42d2d" d="M6407.5 803.5h39.3v39.3h-39.3z"/><path fill="#e53f39" d="M6407.5 869.5h39.3v39.3h-39.3z"/><path fill="#ff6b61" d="M6407.5 969.6h39.3v39.3h-39.3z"/><path fill="#ff988c" d="M6407.5 1010.7h39.3v39.3h-39.3z"/><path fill="#ffbab3" d="M6407.5 1052.7h39.3v39.3h-39.3z"/><path fill="#ffded9" d="M6407.5 1094.7h39.3v39.3h-39.3z"/><path fill="#fff6f5" d="M6407.5 1136.8h39.3v39.3h-39.3z"/><path class="st7" d="M6357.5 761.5h39.3v39.3h-39.3z"/><path class="st4" d="M6357.5 803.5h39.3v39.3h-39.3z"/><path fill="#2b97de" d="M6357.5 869.5h39.3v39.3h-39.3z"/><path fill="#56ace5" d="M6357.5 969.6h39.3v39.3h-39.3z"/><path fill="#7fc1eb" d="M6357.5 1010.7h39.3v39.3h-39.3z"/><path fill="#abd5f2" d="M6357.5 1052.7h39.3v39.3h-39.3z"/><path class="st0" d="M6357.5 1094.7h39.3v39.3h-39.3z"/><path fill="#f3f9fd" d="M6357.5 1136.8h39.3v39.3h-39.3z"/></svg>